%TF.GenerationSoftware,KiCad,Pcbnew,(5.1.10)-1*%
%TF.CreationDate,2021-10-14T15:31:21-03:00*%
%TF.ProjectId,RTC DS3231,52544320-4453-4333-9233-312e6b696361,1*%
%TF.SameCoordinates,Original*%
%TF.FileFunction,Copper,L2,Bot*%
%TF.FilePolarity,Positive*%
%FSLAX46Y46*%
G04 Gerber Fmt 4.6, Leading zero omitted, Abs format (unit mm)*
G04 Created by KiCad (PCBNEW (5.1.10)-1) date 2021-10-14 15:31:21*
%MOMM*%
%LPD*%
G01*
G04 APERTURE LIST*
%TA.AperFunction,ComponentPad*%
%ADD10R,1.700000X1.700000*%
%TD*%
%TA.AperFunction,ComponentPad*%
%ADD11O,1.700000X1.700000*%
%TD*%
%TA.AperFunction,SMDPad,CuDef*%
%ADD12R,2.540000X3.510000*%
%TD*%
%TA.AperFunction,ComponentPad*%
%ADD13C,2.900000*%
%TD*%
%TA.AperFunction,ViaPad*%
%ADD14C,0.800000*%
%TD*%
%TA.AperFunction,Conductor*%
%ADD15C,0.250000*%
%TD*%
%TA.AperFunction,Conductor*%
%ADD16C,0.254000*%
%TD*%
%TA.AperFunction,Conductor*%
%ADD17C,0.100000*%
%TD*%
G04 APERTURE END LIST*
D10*
%TO.P,J102,1*%
%TO.N,/SCL*%
X140000000Y-88210000D03*
D11*
%TO.P,J102,2*%
%TO.N,/SDA*%
X140000000Y-90750000D03*
%TO.P,J102,3*%
%TO.N,VCC*%
X140000000Y-93290000D03*
%TO.P,J102,4*%
%TO.N,GND*%
X140000000Y-95830000D03*
%TD*%
D12*
%TO.P,BT101,1*%
%TO.N,/VBAT*%
X135930000Y-90750000D03*
%TO.P,BT101,2*%
%TO.N,GND*%
X106570000Y-90750000D03*
%TD*%
D13*
%TO.P,H101,1*%
%TO.N,N/C*%
X107250000Y-82000000D03*
%TD*%
%TO.P,H102,1*%
%TO.N,N/C*%
X138500000Y-82000000D03*
%TD*%
%TO.P,H103,1*%
%TO.N,N/C*%
X107250000Y-99500000D03*
%TD*%
D10*
%TO.P,J101,1*%
%TO.N,/32KHZ*%
X102000000Y-84920000D03*
D11*
%TO.P,J101,2*%
%TO.N,/SQW*%
X102000000Y-87460000D03*
%TO.P,J101,3*%
%TO.N,/SCL*%
X102000000Y-90000000D03*
%TO.P,J101,4*%
%TO.N,/SDA*%
X102000000Y-92540000D03*
%TO.P,J101,5*%
%TO.N,VCC*%
X102000000Y-95080000D03*
%TO.P,J101,6*%
%TO.N,GND*%
X102000000Y-97620000D03*
%TD*%
D14*
%TO.N,/VBAT*%
X126405000Y-92655000D03*
X132250000Y-92750000D03*
%TO.N,GND*%
X106500000Y-93000000D03*
X106750000Y-88500000D03*
X122730000Y-93270000D03*
X134000000Y-94500000D03*
%TO.N,VCC*%
X119842500Y-93657500D03*
X130175000Y-83925000D03*
%TO.N,/32KHZ*%
X117500000Y-93250000D03*
X129000000Y-80000000D03*
%TO.N,/SQW*%
X116750000Y-94000000D03*
X126500000Y-84000000D03*
%TO.N,/SCL*%
X116750000Y-95250000D03*
X126500000Y-95250000D03*
X138000000Y-88250000D03*
%TO.N,/SDA*%
X117500000Y-96000000D03*
X138750000Y-91000000D03*
%TO.N,Net-(JP101-Pad2)*%
X122500000Y-98250000D03*
X129000000Y-98250000D03*
%TO.N,Net-(JP102-Pad2)*%
X124500000Y-97500000D03*
X132750000Y-97500000D03*
%TD*%
D15*
%TO.N,/VBAT*%
X134025000Y-92655000D02*
X135930000Y-90750000D01*
X126405000Y-92655000D02*
X134025000Y-92655000D01*
%TO.N,GND*%
X106500000Y-90820000D02*
X106570000Y-90750000D01*
X106500000Y-93000000D02*
X106500000Y-90820000D01*
X106570000Y-90750000D02*
X106570000Y-88680000D01*
X106570000Y-88680000D02*
X106750000Y-88500000D01*
X127500000Y-94500000D02*
X134000000Y-94500000D01*
X125946998Y-93270000D02*
X127500000Y-94500000D01*
X122730000Y-93270000D02*
X125946998Y-93270000D01*
X134000000Y-94500000D02*
X134000000Y-94500000D01*
%TO.N,VCC*%
X120442500Y-93657500D02*
X130175000Y-83925000D01*
X119842500Y-93657500D02*
X120442500Y-93657500D01*
%TO.N,/32KHZ*%
X117500000Y-93250000D02*
X117500000Y-93250000D01*
X117049990Y-92299990D02*
X117500000Y-92750000D01*
X117500000Y-92750000D02*
X117500000Y-93250000D01*
X112942809Y-92299990D02*
X117049990Y-92299990D01*
X107907233Y-87014632D02*
X112942809Y-92299990D01*
X105750000Y-85000000D02*
X107907233Y-87014632D01*
X102080000Y-85000000D02*
X102000000Y-84920000D01*
X105750000Y-85000000D02*
X102080000Y-85000000D01*
X129000000Y-80426998D02*
X129000000Y-80000000D01*
X117000000Y-92250000D02*
X129000000Y-80426998D01*
%TO.N,/SQW*%
X116750000Y-94250000D02*
X116750000Y-94250000D01*
X116750000Y-92750000D02*
X116750000Y-94250000D01*
X112750000Y-92750000D02*
X116750000Y-92750000D01*
X107710000Y-87460000D02*
X112750000Y-92750000D01*
X102000000Y-87460000D02*
X107710000Y-87460000D01*
X117823002Y-94000000D02*
X116750000Y-94000000D01*
X126500000Y-85323002D02*
X117823002Y-94000000D01*
X126500000Y-84000000D02*
X126500000Y-85323002D01*
%TO.N,/SCL*%
X116750000Y-95000000D02*
X116750000Y-95000000D01*
X116750000Y-95000000D02*
X116750000Y-95676998D01*
X116750000Y-96500000D02*
X116750000Y-95750000D01*
X116750000Y-96500000D02*
X107000000Y-96500000D01*
X107000000Y-96500000D02*
X103500000Y-93000000D01*
X103500000Y-93000000D02*
X103500000Y-91500000D01*
X103500000Y-91500000D02*
X102000000Y-90000000D01*
X116750000Y-95250000D02*
X126500000Y-95250000D01*
X135250000Y-95250000D02*
X138000000Y-92500000D01*
X126500000Y-95250000D02*
X135250000Y-95250000D01*
X138000000Y-92500000D02*
X138000000Y-88250000D01*
%TO.N,/SDA*%
X117500000Y-96750000D02*
X117500000Y-96000000D01*
X117000000Y-97000000D02*
X117500000Y-96750000D01*
X106750000Y-97000000D02*
X117000000Y-97000000D01*
X102290000Y-92540000D02*
X106750000Y-97000000D01*
X102000000Y-92540000D02*
X102290000Y-92540000D01*
X134800998Y-96750000D02*
X138500000Y-93050998D01*
X117500000Y-96750000D02*
X134800998Y-96750000D01*
X138500000Y-93050998D02*
X138500000Y-91000000D01*
X138500000Y-91000000D02*
X138750000Y-91000000D01*
%TO.N,Net-(JP101-Pad2)*%
X122500000Y-98250000D02*
X129000000Y-98250000D01*
%TO.N,Net-(JP102-Pad2)*%
X124500000Y-97500000D02*
X132750000Y-97500000D01*
%TD*%
D16*
%TO.N,GND*%
X138684010Y-93993411D02*
X138846525Y-94236632D01*
X139053368Y-94443475D01*
X139235534Y-94565195D01*
X139118645Y-94634822D01*
X138902412Y-94829731D01*
X138728359Y-95063080D01*
X138603175Y-95325901D01*
X138558524Y-95473110D01*
X138679845Y-95703000D01*
X139873000Y-95703000D01*
X139873000Y-95683000D01*
X140127000Y-95683000D01*
X140127000Y-95703000D01*
X140147000Y-95703000D01*
X140147000Y-95957000D01*
X140127000Y-95957000D01*
X140127000Y-97150814D01*
X140356891Y-97271481D01*
X140631252Y-97174157D01*
X140881355Y-97025178D01*
X141097588Y-96830269D01*
X141271641Y-96596920D01*
X141340001Y-96453400D01*
X141340001Y-102340000D01*
X100660000Y-102340000D01*
X100660000Y-98243402D01*
X100728359Y-98386920D01*
X100902412Y-98620269D01*
X101118645Y-98815178D01*
X101368748Y-98964157D01*
X101643109Y-99061481D01*
X101873000Y-98940814D01*
X101873000Y-97747000D01*
X102127000Y-97747000D01*
X102127000Y-98940814D01*
X102356891Y-99061481D01*
X102631252Y-98964157D01*
X102881355Y-98815178D01*
X103097588Y-98620269D01*
X103271641Y-98386920D01*
X103396825Y-98124099D01*
X103441476Y-97976890D01*
X103320155Y-97747000D01*
X102127000Y-97747000D01*
X101873000Y-97747000D01*
X101853000Y-97747000D01*
X101853000Y-97493000D01*
X101873000Y-97493000D01*
X101873000Y-97473000D01*
X102127000Y-97473000D01*
X102127000Y-97493000D01*
X103320155Y-97493000D01*
X103441476Y-97263110D01*
X103396825Y-97115901D01*
X103271641Y-96853080D01*
X103097588Y-96619731D01*
X102881355Y-96424822D01*
X102764466Y-96355195D01*
X102946632Y-96233475D01*
X103153475Y-96026632D01*
X103315990Y-95783411D01*
X103427932Y-95513158D01*
X103485000Y-95226260D01*
X103485000Y-94933740D01*
X103454225Y-94779027D01*
X106186205Y-97511008D01*
X106209999Y-97540001D01*
X106238992Y-97563795D01*
X106238996Y-97563799D01*
X106301417Y-97615026D01*
X106318506Y-97629050D01*
X106262382Y-97652297D01*
X105920890Y-97880475D01*
X105630475Y-98170890D01*
X105402297Y-98512382D01*
X105245126Y-98891828D01*
X105165000Y-99294645D01*
X105165000Y-99705355D01*
X105245126Y-100108172D01*
X105402297Y-100487618D01*
X105630475Y-100829110D01*
X105920890Y-101119525D01*
X106262382Y-101347703D01*
X106641828Y-101504874D01*
X107044645Y-101585000D01*
X107455355Y-101585000D01*
X107858172Y-101504874D01*
X108237618Y-101347703D01*
X108579110Y-101119525D01*
X108869525Y-100829110D01*
X109097703Y-100487618D01*
X109254874Y-100108172D01*
X109335000Y-99705355D01*
X109335000Y-99294645D01*
X109254874Y-98891828D01*
X109097703Y-98512382D01*
X108869525Y-98170890D01*
X108579110Y-97880475D01*
X108398807Y-97760000D01*
X116989665Y-97760000D01*
X117054136Y-97761756D01*
X117101336Y-97753696D01*
X117148986Y-97749003D01*
X117174958Y-97741125D01*
X117201707Y-97736557D01*
X117246415Y-97719449D01*
X117292247Y-97705546D01*
X117349159Y-97675126D01*
X117679409Y-97510000D01*
X121776289Y-97510000D01*
X121696063Y-97590226D01*
X121582795Y-97759744D01*
X121504774Y-97948102D01*
X121465000Y-98148061D01*
X121465000Y-98351939D01*
X121504774Y-98551898D01*
X121582795Y-98740256D01*
X121696063Y-98909774D01*
X121840226Y-99053937D01*
X122009744Y-99167205D01*
X122198102Y-99245226D01*
X122398061Y-99285000D01*
X122601939Y-99285000D01*
X122801898Y-99245226D01*
X122990256Y-99167205D01*
X123159774Y-99053937D01*
X123203711Y-99010000D01*
X128296289Y-99010000D01*
X128340226Y-99053937D01*
X128509744Y-99167205D01*
X128698102Y-99245226D01*
X128898061Y-99285000D01*
X129101939Y-99285000D01*
X129301898Y-99245226D01*
X129490256Y-99167205D01*
X129659774Y-99053937D01*
X129803937Y-98909774D01*
X129917205Y-98740256D01*
X129995226Y-98551898D01*
X130035000Y-98351939D01*
X130035000Y-98260000D01*
X132046289Y-98260000D01*
X132090226Y-98303937D01*
X132259744Y-98417205D01*
X132448102Y-98495226D01*
X132648061Y-98535000D01*
X132851939Y-98535000D01*
X133051898Y-98495226D01*
X133240256Y-98417205D01*
X133409774Y-98303937D01*
X133553937Y-98159774D01*
X133667205Y-97990256D01*
X133745226Y-97801898D01*
X133785000Y-97601939D01*
X133785000Y-97510000D01*
X134763676Y-97510000D01*
X134800998Y-97513676D01*
X134838320Y-97510000D01*
X134838331Y-97510000D01*
X134949984Y-97499003D01*
X135093245Y-97455546D01*
X135225274Y-97384974D01*
X135340999Y-97290001D01*
X135364802Y-97260997D01*
X136438909Y-96186890D01*
X138558524Y-96186890D01*
X138603175Y-96334099D01*
X138728359Y-96596920D01*
X138902412Y-96830269D01*
X139118645Y-97025178D01*
X139368748Y-97174157D01*
X139643109Y-97271481D01*
X139873000Y-97150814D01*
X139873000Y-95957000D01*
X138679845Y-95957000D01*
X138558524Y-96186890D01*
X136438909Y-96186890D01*
X138668891Y-93956909D01*
X138684010Y-93993411D01*
%TA.AperFunction,Conductor*%
D17*
G36*
X138684010Y-93993411D02*
G01*
X138846525Y-94236632D01*
X139053368Y-94443475D01*
X139235534Y-94565195D01*
X139118645Y-94634822D01*
X138902412Y-94829731D01*
X138728359Y-95063080D01*
X138603175Y-95325901D01*
X138558524Y-95473110D01*
X138679845Y-95703000D01*
X139873000Y-95703000D01*
X139873000Y-95683000D01*
X140127000Y-95683000D01*
X140127000Y-95703000D01*
X140147000Y-95703000D01*
X140147000Y-95957000D01*
X140127000Y-95957000D01*
X140127000Y-97150814D01*
X140356891Y-97271481D01*
X140631252Y-97174157D01*
X140881355Y-97025178D01*
X141097588Y-96830269D01*
X141271641Y-96596920D01*
X141340001Y-96453400D01*
X141340001Y-102340000D01*
X100660000Y-102340000D01*
X100660000Y-98243402D01*
X100728359Y-98386920D01*
X100902412Y-98620269D01*
X101118645Y-98815178D01*
X101368748Y-98964157D01*
X101643109Y-99061481D01*
X101873000Y-98940814D01*
X101873000Y-97747000D01*
X102127000Y-97747000D01*
X102127000Y-98940814D01*
X102356891Y-99061481D01*
X102631252Y-98964157D01*
X102881355Y-98815178D01*
X103097588Y-98620269D01*
X103271641Y-98386920D01*
X103396825Y-98124099D01*
X103441476Y-97976890D01*
X103320155Y-97747000D01*
X102127000Y-97747000D01*
X101873000Y-97747000D01*
X101853000Y-97747000D01*
X101853000Y-97493000D01*
X101873000Y-97493000D01*
X101873000Y-97473000D01*
X102127000Y-97473000D01*
X102127000Y-97493000D01*
X103320155Y-97493000D01*
X103441476Y-97263110D01*
X103396825Y-97115901D01*
X103271641Y-96853080D01*
X103097588Y-96619731D01*
X102881355Y-96424822D01*
X102764466Y-96355195D01*
X102946632Y-96233475D01*
X103153475Y-96026632D01*
X103315990Y-95783411D01*
X103427932Y-95513158D01*
X103485000Y-95226260D01*
X103485000Y-94933740D01*
X103454225Y-94779027D01*
X106186205Y-97511008D01*
X106209999Y-97540001D01*
X106238992Y-97563795D01*
X106238996Y-97563799D01*
X106301417Y-97615026D01*
X106318506Y-97629050D01*
X106262382Y-97652297D01*
X105920890Y-97880475D01*
X105630475Y-98170890D01*
X105402297Y-98512382D01*
X105245126Y-98891828D01*
X105165000Y-99294645D01*
X105165000Y-99705355D01*
X105245126Y-100108172D01*
X105402297Y-100487618D01*
X105630475Y-100829110D01*
X105920890Y-101119525D01*
X106262382Y-101347703D01*
X106641828Y-101504874D01*
X107044645Y-101585000D01*
X107455355Y-101585000D01*
X107858172Y-101504874D01*
X108237618Y-101347703D01*
X108579110Y-101119525D01*
X108869525Y-100829110D01*
X109097703Y-100487618D01*
X109254874Y-100108172D01*
X109335000Y-99705355D01*
X109335000Y-99294645D01*
X109254874Y-98891828D01*
X109097703Y-98512382D01*
X108869525Y-98170890D01*
X108579110Y-97880475D01*
X108398807Y-97760000D01*
X116989665Y-97760000D01*
X117054136Y-97761756D01*
X117101336Y-97753696D01*
X117148986Y-97749003D01*
X117174958Y-97741125D01*
X117201707Y-97736557D01*
X117246415Y-97719449D01*
X117292247Y-97705546D01*
X117349159Y-97675126D01*
X117679409Y-97510000D01*
X121776289Y-97510000D01*
X121696063Y-97590226D01*
X121582795Y-97759744D01*
X121504774Y-97948102D01*
X121465000Y-98148061D01*
X121465000Y-98351939D01*
X121504774Y-98551898D01*
X121582795Y-98740256D01*
X121696063Y-98909774D01*
X121840226Y-99053937D01*
X122009744Y-99167205D01*
X122198102Y-99245226D01*
X122398061Y-99285000D01*
X122601939Y-99285000D01*
X122801898Y-99245226D01*
X122990256Y-99167205D01*
X123159774Y-99053937D01*
X123203711Y-99010000D01*
X128296289Y-99010000D01*
X128340226Y-99053937D01*
X128509744Y-99167205D01*
X128698102Y-99245226D01*
X128898061Y-99285000D01*
X129101939Y-99285000D01*
X129301898Y-99245226D01*
X129490256Y-99167205D01*
X129659774Y-99053937D01*
X129803937Y-98909774D01*
X129917205Y-98740256D01*
X129995226Y-98551898D01*
X130035000Y-98351939D01*
X130035000Y-98260000D01*
X132046289Y-98260000D01*
X132090226Y-98303937D01*
X132259744Y-98417205D01*
X132448102Y-98495226D01*
X132648061Y-98535000D01*
X132851939Y-98535000D01*
X133051898Y-98495226D01*
X133240256Y-98417205D01*
X133409774Y-98303937D01*
X133553937Y-98159774D01*
X133667205Y-97990256D01*
X133745226Y-97801898D01*
X133785000Y-97601939D01*
X133785000Y-97510000D01*
X134763676Y-97510000D01*
X134800998Y-97513676D01*
X134838320Y-97510000D01*
X134838331Y-97510000D01*
X134949984Y-97499003D01*
X135093245Y-97455546D01*
X135225274Y-97384974D01*
X135340999Y-97290001D01*
X135364802Y-97260997D01*
X136438909Y-96186890D01*
X138558524Y-96186890D01*
X138603175Y-96334099D01*
X138728359Y-96596920D01*
X138902412Y-96830269D01*
X139118645Y-97025178D01*
X139368748Y-97174157D01*
X139643109Y-97271481D01*
X139873000Y-97150814D01*
X139873000Y-95957000D01*
X138679845Y-95957000D01*
X138558524Y-96186890D01*
X136438909Y-96186890D01*
X138668891Y-93956909D01*
X138684010Y-93993411D01*
G37*
%TD.AperFunction*%
D16*
X107515793Y-88357940D02*
X106855750Y-88360000D01*
X106697000Y-88518750D01*
X106697000Y-90623000D01*
X108316250Y-90623000D01*
X108475000Y-90464250D01*
X108477294Y-89367135D01*
X112180359Y-93253885D01*
X112209999Y-93290001D01*
X112260747Y-93331649D01*
X112310485Y-93374523D01*
X112318557Y-93379092D01*
X112325724Y-93384974D01*
X112383615Y-93415918D01*
X112440768Y-93448269D01*
X112449576Y-93451175D01*
X112457753Y-93455546D01*
X112520585Y-93474605D01*
X112582936Y-93495179D01*
X112592139Y-93496311D01*
X112601014Y-93499003D01*
X112666368Y-93505440D01*
X112731523Y-93513453D01*
X112778113Y-93510000D01*
X115832689Y-93510000D01*
X115754774Y-93698102D01*
X115715000Y-93898061D01*
X115715000Y-94101939D01*
X115754774Y-94301898D01*
X115832795Y-94490256D01*
X115922828Y-94625000D01*
X115832795Y-94759744D01*
X115754774Y-94948102D01*
X115715000Y-95148061D01*
X115715000Y-95351939D01*
X115754774Y-95551898D01*
X115832689Y-95740000D01*
X107314803Y-95740000D01*
X104260000Y-92685199D01*
X104260000Y-92505000D01*
X104661928Y-92505000D01*
X104674188Y-92629482D01*
X104710498Y-92749180D01*
X104769463Y-92859494D01*
X104848815Y-92956185D01*
X104945506Y-93035537D01*
X105055820Y-93094502D01*
X105175518Y-93130812D01*
X105300000Y-93143072D01*
X106284250Y-93140000D01*
X106443000Y-92981250D01*
X106443000Y-90877000D01*
X106697000Y-90877000D01*
X106697000Y-92981250D01*
X106855750Y-93140000D01*
X107840000Y-93143072D01*
X107964482Y-93130812D01*
X108084180Y-93094502D01*
X108194494Y-93035537D01*
X108291185Y-92956185D01*
X108370537Y-92859494D01*
X108429502Y-92749180D01*
X108465812Y-92629482D01*
X108478072Y-92505000D01*
X108475000Y-91035750D01*
X108316250Y-90877000D01*
X106697000Y-90877000D01*
X106443000Y-90877000D01*
X104823750Y-90877000D01*
X104665000Y-91035750D01*
X104661928Y-92505000D01*
X104260000Y-92505000D01*
X104260000Y-91537322D01*
X104263676Y-91499999D01*
X104260000Y-91462676D01*
X104260000Y-91462667D01*
X104249003Y-91351014D01*
X104205546Y-91207753D01*
X104134974Y-91075724D01*
X104040001Y-90959999D01*
X104011003Y-90936201D01*
X103441210Y-90366408D01*
X103485000Y-90146260D01*
X103485000Y-89853740D01*
X103427932Y-89566842D01*
X103315990Y-89296589D01*
X103153475Y-89053368D01*
X103095107Y-88995000D01*
X104661928Y-88995000D01*
X104665000Y-90464250D01*
X104823750Y-90623000D01*
X106443000Y-90623000D01*
X106443000Y-88518750D01*
X106284250Y-88360000D01*
X105300000Y-88356928D01*
X105175518Y-88369188D01*
X105055820Y-88405498D01*
X104945506Y-88464463D01*
X104848815Y-88543815D01*
X104769463Y-88640506D01*
X104710498Y-88750820D01*
X104674188Y-88870518D01*
X104661928Y-88995000D01*
X103095107Y-88995000D01*
X102946632Y-88846525D01*
X102772240Y-88730000D01*
X102946632Y-88613475D01*
X103153475Y-88406632D01*
X103278178Y-88220000D01*
X107384372Y-88220000D01*
X107515793Y-88357940D01*
%TA.AperFunction,Conductor*%
D17*
G36*
X107515793Y-88357940D02*
G01*
X106855750Y-88360000D01*
X106697000Y-88518750D01*
X106697000Y-90623000D01*
X108316250Y-90623000D01*
X108475000Y-90464250D01*
X108477294Y-89367135D01*
X112180359Y-93253885D01*
X112209999Y-93290001D01*
X112260747Y-93331649D01*
X112310485Y-93374523D01*
X112318557Y-93379092D01*
X112325724Y-93384974D01*
X112383615Y-93415918D01*
X112440768Y-93448269D01*
X112449576Y-93451175D01*
X112457753Y-93455546D01*
X112520585Y-93474605D01*
X112582936Y-93495179D01*
X112592139Y-93496311D01*
X112601014Y-93499003D01*
X112666368Y-93505440D01*
X112731523Y-93513453D01*
X112778113Y-93510000D01*
X115832689Y-93510000D01*
X115754774Y-93698102D01*
X115715000Y-93898061D01*
X115715000Y-94101939D01*
X115754774Y-94301898D01*
X115832795Y-94490256D01*
X115922828Y-94625000D01*
X115832795Y-94759744D01*
X115754774Y-94948102D01*
X115715000Y-95148061D01*
X115715000Y-95351939D01*
X115754774Y-95551898D01*
X115832689Y-95740000D01*
X107314803Y-95740000D01*
X104260000Y-92685199D01*
X104260000Y-92505000D01*
X104661928Y-92505000D01*
X104674188Y-92629482D01*
X104710498Y-92749180D01*
X104769463Y-92859494D01*
X104848815Y-92956185D01*
X104945506Y-93035537D01*
X105055820Y-93094502D01*
X105175518Y-93130812D01*
X105300000Y-93143072D01*
X106284250Y-93140000D01*
X106443000Y-92981250D01*
X106443000Y-90877000D01*
X106697000Y-90877000D01*
X106697000Y-92981250D01*
X106855750Y-93140000D01*
X107840000Y-93143072D01*
X107964482Y-93130812D01*
X108084180Y-93094502D01*
X108194494Y-93035537D01*
X108291185Y-92956185D01*
X108370537Y-92859494D01*
X108429502Y-92749180D01*
X108465812Y-92629482D01*
X108478072Y-92505000D01*
X108475000Y-91035750D01*
X108316250Y-90877000D01*
X106697000Y-90877000D01*
X106443000Y-90877000D01*
X104823750Y-90877000D01*
X104665000Y-91035750D01*
X104661928Y-92505000D01*
X104260000Y-92505000D01*
X104260000Y-91537322D01*
X104263676Y-91499999D01*
X104260000Y-91462676D01*
X104260000Y-91462667D01*
X104249003Y-91351014D01*
X104205546Y-91207753D01*
X104134974Y-91075724D01*
X104040001Y-90959999D01*
X104011003Y-90936201D01*
X103441210Y-90366408D01*
X103485000Y-90146260D01*
X103485000Y-89853740D01*
X103427932Y-89566842D01*
X103315990Y-89296589D01*
X103153475Y-89053368D01*
X103095107Y-88995000D01*
X104661928Y-88995000D01*
X104665000Y-90464250D01*
X104823750Y-90623000D01*
X106443000Y-90623000D01*
X106443000Y-88518750D01*
X106284250Y-88360000D01*
X105300000Y-88356928D01*
X105175518Y-88369188D01*
X105055820Y-88405498D01*
X104945506Y-88464463D01*
X104848815Y-88543815D01*
X104769463Y-88640506D01*
X104710498Y-88750820D01*
X104674188Y-88870518D01*
X104661928Y-88995000D01*
X103095107Y-88995000D01*
X102946632Y-88846525D01*
X102772240Y-88730000D01*
X102946632Y-88613475D01*
X103153475Y-88406632D01*
X103278178Y-88220000D01*
X107384372Y-88220000D01*
X107515793Y-88357940D01*
G37*
%TD.AperFunction*%
D16*
X141340000Y-86956112D02*
X141301185Y-86908815D01*
X141204494Y-86829463D01*
X141094180Y-86770498D01*
X140974482Y-86734188D01*
X140850000Y-86721928D01*
X139150000Y-86721928D01*
X139025518Y-86734188D01*
X138905820Y-86770498D01*
X138795506Y-86829463D01*
X138698815Y-86908815D01*
X138619463Y-87005506D01*
X138560498Y-87115820D01*
X138524188Y-87235518D01*
X138513104Y-87348061D01*
X138490256Y-87332795D01*
X138301898Y-87254774D01*
X138101939Y-87215000D01*
X137898061Y-87215000D01*
X137698102Y-87254774D01*
X137509744Y-87332795D01*
X137340226Y-87446063D01*
X137196063Y-87590226D01*
X137082795Y-87759744D01*
X137004774Y-87948102D01*
X136965000Y-88148061D01*
X136965000Y-88351939D01*
X136965992Y-88356928D01*
X134660000Y-88356928D01*
X134535518Y-88369188D01*
X134415820Y-88405498D01*
X134305506Y-88464463D01*
X134208815Y-88543815D01*
X134129463Y-88640506D01*
X134070498Y-88750820D01*
X134034188Y-88870518D01*
X134021928Y-88995000D01*
X134021928Y-91583271D01*
X133710199Y-91895000D01*
X132833353Y-91895000D01*
X132740256Y-91832795D01*
X132551898Y-91754774D01*
X132351939Y-91715000D01*
X132148061Y-91715000D01*
X131948102Y-91754774D01*
X131759744Y-91832795D01*
X131666647Y-91895000D01*
X127108711Y-91895000D01*
X127064774Y-91851063D01*
X126895256Y-91737795D01*
X126706898Y-91659774D01*
X126506939Y-91620000D01*
X126303061Y-91620000D01*
X126103102Y-91659774D01*
X125914744Y-91737795D01*
X125745226Y-91851063D01*
X125601063Y-91995226D01*
X125487795Y-92164744D01*
X125409774Y-92353102D01*
X125370000Y-92553061D01*
X125370000Y-92756939D01*
X125409774Y-92956898D01*
X125487795Y-93145256D01*
X125601063Y-93314774D01*
X125745226Y-93458937D01*
X125914744Y-93572205D01*
X126103102Y-93650226D01*
X126303061Y-93690000D01*
X126506939Y-93690000D01*
X126706898Y-93650226D01*
X126895256Y-93572205D01*
X127064774Y-93458937D01*
X127108711Y-93415000D01*
X131451289Y-93415000D01*
X131590226Y-93553937D01*
X131759744Y-93667205D01*
X131948102Y-93745226D01*
X132148061Y-93785000D01*
X132351939Y-93785000D01*
X132551898Y-93745226D01*
X132740256Y-93667205D01*
X132909774Y-93553937D01*
X133048711Y-93415000D01*
X133987678Y-93415000D01*
X134025000Y-93418676D01*
X134062322Y-93415000D01*
X134062333Y-93415000D01*
X134173986Y-93404003D01*
X134317247Y-93360546D01*
X134449276Y-93289974D01*
X134565001Y-93195001D01*
X134588804Y-93165997D01*
X134616057Y-93138744D01*
X134660000Y-93143072D01*
X136282126Y-93143072D01*
X134935199Y-94490000D01*
X127203711Y-94490000D01*
X127159774Y-94446063D01*
X126990256Y-94332795D01*
X126801898Y-94254774D01*
X126601939Y-94215000D01*
X126398061Y-94215000D01*
X126198102Y-94254774D01*
X126009744Y-94332795D01*
X125840226Y-94446063D01*
X125796289Y-94490000D01*
X120459526Y-94490000D01*
X120502274Y-94461437D01*
X120553463Y-94410248D01*
X120591486Y-94406503D01*
X120734747Y-94363046D01*
X120866776Y-94292474D01*
X120982501Y-94197501D01*
X121006304Y-94168497D01*
X130214803Y-84960000D01*
X130276939Y-84960000D01*
X130476898Y-84920226D01*
X130665256Y-84842205D01*
X130834774Y-84728937D01*
X130978937Y-84584774D01*
X131092205Y-84415256D01*
X131170226Y-84226898D01*
X131210000Y-84026939D01*
X131210000Y-83823061D01*
X131170226Y-83623102D01*
X131092205Y-83434744D01*
X130978937Y-83265226D01*
X130834774Y-83121063D01*
X130665256Y-83007795D01*
X130476898Y-82929774D01*
X130276939Y-82890000D01*
X130073061Y-82890000D01*
X129873102Y-82929774D01*
X129684744Y-83007795D01*
X129515226Y-83121063D01*
X129371063Y-83265226D01*
X129257795Y-83434744D01*
X129179774Y-83623102D01*
X129140000Y-83823061D01*
X129140000Y-83885197D01*
X120298920Y-92726279D01*
X120208837Y-92688966D01*
X127011003Y-85886801D01*
X127040001Y-85863003D01*
X127134974Y-85747278D01*
X127205546Y-85615249D01*
X127249003Y-85471988D01*
X127260000Y-85360335D01*
X127260000Y-85360326D01*
X127263676Y-85323003D01*
X127260000Y-85285680D01*
X127260000Y-84703711D01*
X127303937Y-84659774D01*
X127417205Y-84490256D01*
X127495226Y-84301898D01*
X127535000Y-84101939D01*
X127535000Y-83898061D01*
X127495226Y-83698102D01*
X127417205Y-83509744D01*
X127303937Y-83340226D01*
X127215648Y-83251937D01*
X128694756Y-81794645D01*
X136415000Y-81794645D01*
X136415000Y-82205355D01*
X136495126Y-82608172D01*
X136652297Y-82987618D01*
X136880475Y-83329110D01*
X137170890Y-83619525D01*
X137512382Y-83847703D01*
X137891828Y-84004874D01*
X138294645Y-84085000D01*
X138705355Y-84085000D01*
X139108172Y-84004874D01*
X139487618Y-83847703D01*
X139829110Y-83619525D01*
X140119525Y-83329110D01*
X140347703Y-82987618D01*
X140504874Y-82608172D01*
X140585000Y-82205355D01*
X140585000Y-81794645D01*
X140504874Y-81391828D01*
X140347703Y-81012382D01*
X140119525Y-80670890D01*
X139829110Y-80380475D01*
X139487618Y-80152297D01*
X139108172Y-79995126D01*
X138705355Y-79915000D01*
X138294645Y-79915000D01*
X137891828Y-79995126D01*
X137512382Y-80152297D01*
X137170890Y-80380475D01*
X136880475Y-80670890D01*
X136652297Y-81012382D01*
X136495126Y-81391828D01*
X136415000Y-81794645D01*
X128694756Y-81794645D01*
X129508820Y-80992589D01*
X129540001Y-80966999D01*
X129585667Y-80911354D01*
X129631804Y-80855981D01*
X129633167Y-80853476D01*
X129634974Y-80851274D01*
X129660854Y-80802857D01*
X129803937Y-80659774D01*
X129917205Y-80490256D01*
X129995226Y-80301898D01*
X130035000Y-80101939D01*
X130035000Y-79898061D01*
X129995226Y-79698102D01*
X129917205Y-79509744D01*
X129803937Y-79340226D01*
X129659774Y-79196063D01*
X129605802Y-79160000D01*
X141340000Y-79160000D01*
X141340000Y-86956112D01*
%TA.AperFunction,Conductor*%
D17*
G36*
X141340000Y-86956112D02*
G01*
X141301185Y-86908815D01*
X141204494Y-86829463D01*
X141094180Y-86770498D01*
X140974482Y-86734188D01*
X140850000Y-86721928D01*
X139150000Y-86721928D01*
X139025518Y-86734188D01*
X138905820Y-86770498D01*
X138795506Y-86829463D01*
X138698815Y-86908815D01*
X138619463Y-87005506D01*
X138560498Y-87115820D01*
X138524188Y-87235518D01*
X138513104Y-87348061D01*
X138490256Y-87332795D01*
X138301898Y-87254774D01*
X138101939Y-87215000D01*
X137898061Y-87215000D01*
X137698102Y-87254774D01*
X137509744Y-87332795D01*
X137340226Y-87446063D01*
X137196063Y-87590226D01*
X137082795Y-87759744D01*
X137004774Y-87948102D01*
X136965000Y-88148061D01*
X136965000Y-88351939D01*
X136965992Y-88356928D01*
X134660000Y-88356928D01*
X134535518Y-88369188D01*
X134415820Y-88405498D01*
X134305506Y-88464463D01*
X134208815Y-88543815D01*
X134129463Y-88640506D01*
X134070498Y-88750820D01*
X134034188Y-88870518D01*
X134021928Y-88995000D01*
X134021928Y-91583271D01*
X133710199Y-91895000D01*
X132833353Y-91895000D01*
X132740256Y-91832795D01*
X132551898Y-91754774D01*
X132351939Y-91715000D01*
X132148061Y-91715000D01*
X131948102Y-91754774D01*
X131759744Y-91832795D01*
X131666647Y-91895000D01*
X127108711Y-91895000D01*
X127064774Y-91851063D01*
X126895256Y-91737795D01*
X126706898Y-91659774D01*
X126506939Y-91620000D01*
X126303061Y-91620000D01*
X126103102Y-91659774D01*
X125914744Y-91737795D01*
X125745226Y-91851063D01*
X125601063Y-91995226D01*
X125487795Y-92164744D01*
X125409774Y-92353102D01*
X125370000Y-92553061D01*
X125370000Y-92756939D01*
X125409774Y-92956898D01*
X125487795Y-93145256D01*
X125601063Y-93314774D01*
X125745226Y-93458937D01*
X125914744Y-93572205D01*
X126103102Y-93650226D01*
X126303061Y-93690000D01*
X126506939Y-93690000D01*
X126706898Y-93650226D01*
X126895256Y-93572205D01*
X127064774Y-93458937D01*
X127108711Y-93415000D01*
X131451289Y-93415000D01*
X131590226Y-93553937D01*
X131759744Y-93667205D01*
X131948102Y-93745226D01*
X132148061Y-93785000D01*
X132351939Y-93785000D01*
X132551898Y-93745226D01*
X132740256Y-93667205D01*
X132909774Y-93553937D01*
X133048711Y-93415000D01*
X133987678Y-93415000D01*
X134025000Y-93418676D01*
X134062322Y-93415000D01*
X134062333Y-93415000D01*
X134173986Y-93404003D01*
X134317247Y-93360546D01*
X134449276Y-93289974D01*
X134565001Y-93195001D01*
X134588804Y-93165997D01*
X134616057Y-93138744D01*
X134660000Y-93143072D01*
X136282126Y-93143072D01*
X134935199Y-94490000D01*
X127203711Y-94490000D01*
X127159774Y-94446063D01*
X126990256Y-94332795D01*
X126801898Y-94254774D01*
X126601939Y-94215000D01*
X126398061Y-94215000D01*
X126198102Y-94254774D01*
X126009744Y-94332795D01*
X125840226Y-94446063D01*
X125796289Y-94490000D01*
X120459526Y-94490000D01*
X120502274Y-94461437D01*
X120553463Y-94410248D01*
X120591486Y-94406503D01*
X120734747Y-94363046D01*
X120866776Y-94292474D01*
X120982501Y-94197501D01*
X121006304Y-94168497D01*
X130214803Y-84960000D01*
X130276939Y-84960000D01*
X130476898Y-84920226D01*
X130665256Y-84842205D01*
X130834774Y-84728937D01*
X130978937Y-84584774D01*
X131092205Y-84415256D01*
X131170226Y-84226898D01*
X131210000Y-84026939D01*
X131210000Y-83823061D01*
X131170226Y-83623102D01*
X131092205Y-83434744D01*
X130978937Y-83265226D01*
X130834774Y-83121063D01*
X130665256Y-83007795D01*
X130476898Y-82929774D01*
X130276939Y-82890000D01*
X130073061Y-82890000D01*
X129873102Y-82929774D01*
X129684744Y-83007795D01*
X129515226Y-83121063D01*
X129371063Y-83265226D01*
X129257795Y-83434744D01*
X129179774Y-83623102D01*
X129140000Y-83823061D01*
X129140000Y-83885197D01*
X120298920Y-92726279D01*
X120208837Y-92688966D01*
X127011003Y-85886801D01*
X127040001Y-85863003D01*
X127134974Y-85747278D01*
X127205546Y-85615249D01*
X127249003Y-85471988D01*
X127260000Y-85360335D01*
X127260000Y-85360326D01*
X127263676Y-85323003D01*
X127260000Y-85285680D01*
X127260000Y-84703711D01*
X127303937Y-84659774D01*
X127417205Y-84490256D01*
X127495226Y-84301898D01*
X127535000Y-84101939D01*
X127535000Y-83898061D01*
X127495226Y-83698102D01*
X127417205Y-83509744D01*
X127303937Y-83340226D01*
X127215648Y-83251937D01*
X128694756Y-81794645D01*
X136415000Y-81794645D01*
X136415000Y-82205355D01*
X136495126Y-82608172D01*
X136652297Y-82987618D01*
X136880475Y-83329110D01*
X137170890Y-83619525D01*
X137512382Y-83847703D01*
X137891828Y-84004874D01*
X138294645Y-84085000D01*
X138705355Y-84085000D01*
X139108172Y-84004874D01*
X139487618Y-83847703D01*
X139829110Y-83619525D01*
X140119525Y-83329110D01*
X140347703Y-82987618D01*
X140504874Y-82608172D01*
X140585000Y-82205355D01*
X140585000Y-81794645D01*
X140504874Y-81391828D01*
X140347703Y-81012382D01*
X140119525Y-80670890D01*
X139829110Y-80380475D01*
X139487618Y-80152297D01*
X139108172Y-79995126D01*
X138705355Y-79915000D01*
X138294645Y-79915000D01*
X137891828Y-79995126D01*
X137512382Y-80152297D01*
X137170890Y-80380475D01*
X136880475Y-80670890D01*
X136652297Y-81012382D01*
X136495126Y-81391828D01*
X136415000Y-81794645D01*
X128694756Y-81794645D01*
X129508820Y-80992589D01*
X129540001Y-80966999D01*
X129585667Y-80911354D01*
X129631804Y-80855981D01*
X129633167Y-80853476D01*
X129634974Y-80851274D01*
X129660854Y-80802857D01*
X129803937Y-80659774D01*
X129917205Y-80490256D01*
X129995226Y-80301898D01*
X130035000Y-80101939D01*
X130035000Y-79898061D01*
X129995226Y-79698102D01*
X129917205Y-79509744D01*
X129803937Y-79340226D01*
X129659774Y-79196063D01*
X129605802Y-79160000D01*
X141340000Y-79160000D01*
X141340000Y-86956112D01*
G37*
%TD.AperFunction*%
%TD*%
M02*
