%TF.GenerationSoftware,KiCad,Pcbnew,(5.1.10)-1*%
%TF.CreationDate,2021-10-14T15:31:21-03:00*%
%TF.ProjectId,RTC DS3231,52544320-4453-4333-9233-312e6b696361,1*%
%TF.SameCoordinates,Original*%
%TF.FileFunction,Paste,Top*%
%TF.FilePolarity,Positive*%
%FSLAX46Y46*%
G04 Gerber Fmt 4.6, Leading zero omitted, Abs format (unit mm)*
G04 Created by KiCad (PCBNEW (5.1.10)-1) date 2021-10-14 15:31:21*
%MOMM*%
%LPD*%
G01*
G04 APERTURE LIST*
%ADD10R,0.900000X0.400000*%
G04 APERTURE END LIST*
D10*
%TO.C,RN102*%
X113922400Y-93421100D03*
X113922400Y-94221100D03*
X113922400Y-95021100D03*
X113922400Y-95821100D03*
X115622400Y-93421100D03*
X115622400Y-95821100D03*
X115622400Y-94221100D03*
X115622400Y-95021100D03*
%TD*%
%TO.C,D101*%
G36*
G01*
X115092400Y-81400000D02*
X115092400Y-80600000D01*
G75*
G02*
X115342400Y-80350000I250000J0D01*
G01*
X116167400Y-80350000D01*
G75*
G02*
X116417400Y-80600000I0J-250000D01*
G01*
X116417400Y-81400000D01*
G75*
G02*
X116167400Y-81650000I-250000J0D01*
G01*
X115342400Y-81650000D01*
G75*
G02*
X115092400Y-81400000I0J250000D01*
G01*
G37*
G36*
G01*
X113167400Y-81400000D02*
X113167400Y-80600000D01*
G75*
G02*
X113417400Y-80350000I250000J0D01*
G01*
X114242400Y-80350000D01*
G75*
G02*
X114492400Y-80600000I0J-250000D01*
G01*
X114492400Y-81400000D01*
G75*
G02*
X114242400Y-81650000I-250000J0D01*
G01*
X113417400Y-81650000D01*
G75*
G02*
X113167400Y-81400000I0J250000D01*
G01*
G37*
%TD*%
%TO.C,C101*%
G36*
G01*
X115222400Y-87000100D02*
X115222400Y-86050100D01*
G75*
G02*
X115472400Y-85800100I250000J0D01*
G01*
X115972400Y-85800100D01*
G75*
G02*
X116222400Y-86050100I0J-250000D01*
G01*
X116222400Y-87000100D01*
G75*
G02*
X115972400Y-87250100I-250000J0D01*
G01*
X115472400Y-87250100D01*
G75*
G02*
X115222400Y-87000100I0J250000D01*
G01*
G37*
G36*
G01*
X113322400Y-87000100D02*
X113322400Y-86050100D01*
G75*
G02*
X113572400Y-85800100I250000J0D01*
G01*
X114072400Y-85800100D01*
G75*
G02*
X114322400Y-86050100I0J-250000D01*
G01*
X114322400Y-87000100D01*
G75*
G02*
X114072400Y-87250100I-250000J0D01*
G01*
X113572400Y-87250100D01*
G75*
G02*
X113322400Y-87000100I0J250000D01*
G01*
G37*
%TD*%
%TO.C,C102*%
G36*
G01*
X113322400Y-90124300D02*
X113322400Y-89174300D01*
G75*
G02*
X113572400Y-88924300I250000J0D01*
G01*
X114072400Y-88924300D01*
G75*
G02*
X114322400Y-89174300I0J-250000D01*
G01*
X114322400Y-90124300D01*
G75*
G02*
X114072400Y-90374300I-250000J0D01*
G01*
X113572400Y-90374300D01*
G75*
G02*
X113322400Y-90124300I0J250000D01*
G01*
G37*
G36*
G01*
X115222400Y-90124300D02*
X115222400Y-89174300D01*
G75*
G02*
X115472400Y-88924300I250000J0D01*
G01*
X115972400Y-88924300D01*
G75*
G02*
X116222400Y-89174300I0J-250000D01*
G01*
X116222400Y-90124300D01*
G75*
G02*
X115972400Y-90374300I-250000J0D01*
G01*
X115472400Y-90374300D01*
G75*
G02*
X115222400Y-90124300I0J250000D01*
G01*
G37*
%TD*%
%TO.C,D102*%
G36*
G01*
X132706250Y-91362500D02*
X131793750Y-91362500D01*
G75*
G02*
X131550000Y-91118750I0J243750D01*
G01*
X131550000Y-90631250D01*
G75*
G02*
X131793750Y-90387500I243750J0D01*
G01*
X132706250Y-90387500D01*
G75*
G02*
X132950000Y-90631250I0J-243750D01*
G01*
X132950000Y-91118750D01*
G75*
G02*
X132706250Y-91362500I-243750J0D01*
G01*
G37*
G36*
G01*
X132706250Y-89487500D02*
X131793750Y-89487500D01*
G75*
G02*
X131550000Y-89243750I0J243750D01*
G01*
X131550000Y-88756250D01*
G75*
G02*
X131793750Y-88512500I243750J0D01*
G01*
X132706250Y-88512500D01*
G75*
G02*
X132950000Y-88756250I0J-243750D01*
G01*
X132950000Y-89243750D01*
G75*
G02*
X132706250Y-89487500I-243750J0D01*
G01*
G37*
%TD*%
%TO.C,R101*%
G36*
G01*
X115172400Y-83889001D02*
X115172400Y-82988999D01*
G75*
G02*
X115422399Y-82739000I249999J0D01*
G01*
X115947401Y-82739000D01*
G75*
G02*
X116197400Y-82988999I0J-249999D01*
G01*
X116197400Y-83889001D01*
G75*
G02*
X115947401Y-84139000I-249999J0D01*
G01*
X115422399Y-84139000D01*
G75*
G02*
X115172400Y-83889001I0J249999D01*
G01*
G37*
G36*
G01*
X113347400Y-83889001D02*
X113347400Y-82988999D01*
G75*
G02*
X113597399Y-82739000I249999J0D01*
G01*
X114122401Y-82739000D01*
G75*
G02*
X114372400Y-82988999I0J-249999D01*
G01*
X114372400Y-83889001D01*
G75*
G02*
X114122401Y-84139000I-249999J0D01*
G01*
X113597399Y-84139000D01*
G75*
G02*
X113347400Y-83889001I0J249999D01*
G01*
G37*
%TD*%
%TO.C,R102*%
G36*
G01*
X131799999Y-83412500D02*
X132700001Y-83412500D01*
G75*
G02*
X132950000Y-83662499I0J-249999D01*
G01*
X132950000Y-84187501D01*
G75*
G02*
X132700001Y-84437500I-249999J0D01*
G01*
X131799999Y-84437500D01*
G75*
G02*
X131550000Y-84187501I0J249999D01*
G01*
X131550000Y-83662499D01*
G75*
G02*
X131799999Y-83412500I249999J0D01*
G01*
G37*
G36*
G01*
X131799999Y-85237500D02*
X132700001Y-85237500D01*
G75*
G02*
X132950000Y-85487499I0J-249999D01*
G01*
X132950000Y-86012501D01*
G75*
G02*
X132700001Y-86262500I-249999J0D01*
G01*
X131799999Y-86262500D01*
G75*
G02*
X131550000Y-86012501I0J249999D01*
G01*
X131550000Y-85487499D01*
G75*
G02*
X131799999Y-85237500I249999J0D01*
G01*
G37*
%TD*%
%TO.C,RN101*%
X115622400Y-100050000D03*
X115622400Y-99250000D03*
X115622400Y-100850000D03*
X115622400Y-98450000D03*
X113922400Y-100850000D03*
X113922400Y-100050000D03*
X113922400Y-99250000D03*
X113922400Y-98450000D03*
%TD*%
%TO.C,U101*%
G36*
G01*
X128795000Y-80725000D02*
X129095000Y-80725000D01*
G75*
G02*
X129245000Y-80875000I0J-150000D01*
G01*
X129245000Y-82625000D01*
G75*
G02*
X129095000Y-82775000I-150000J0D01*
G01*
X128795000Y-82775000D01*
G75*
G02*
X128645000Y-82625000I0J150000D01*
G01*
X128645000Y-80875000D01*
G75*
G02*
X128795000Y-80725000I150000J0D01*
G01*
G37*
G36*
G01*
X127525000Y-80725000D02*
X127825000Y-80725000D01*
G75*
G02*
X127975000Y-80875000I0J-150000D01*
G01*
X127975000Y-82625000D01*
G75*
G02*
X127825000Y-82775000I-150000J0D01*
G01*
X127525000Y-82775000D01*
G75*
G02*
X127375000Y-82625000I0J150000D01*
G01*
X127375000Y-80875000D01*
G75*
G02*
X127525000Y-80725000I150000J0D01*
G01*
G37*
G36*
G01*
X126255000Y-80725000D02*
X126555000Y-80725000D01*
G75*
G02*
X126705000Y-80875000I0J-150000D01*
G01*
X126705000Y-82625000D01*
G75*
G02*
X126555000Y-82775000I-150000J0D01*
G01*
X126255000Y-82775000D01*
G75*
G02*
X126105000Y-82625000I0J150000D01*
G01*
X126105000Y-80875000D01*
G75*
G02*
X126255000Y-80725000I150000J0D01*
G01*
G37*
G36*
G01*
X124985000Y-80725000D02*
X125285000Y-80725000D01*
G75*
G02*
X125435000Y-80875000I0J-150000D01*
G01*
X125435000Y-82625000D01*
G75*
G02*
X125285000Y-82775000I-150000J0D01*
G01*
X124985000Y-82775000D01*
G75*
G02*
X124835000Y-82625000I0J150000D01*
G01*
X124835000Y-80875000D01*
G75*
G02*
X124985000Y-80725000I150000J0D01*
G01*
G37*
G36*
G01*
X123715000Y-80725000D02*
X124015000Y-80725000D01*
G75*
G02*
X124165000Y-80875000I0J-150000D01*
G01*
X124165000Y-82625000D01*
G75*
G02*
X124015000Y-82775000I-150000J0D01*
G01*
X123715000Y-82775000D01*
G75*
G02*
X123565000Y-82625000I0J150000D01*
G01*
X123565000Y-80875000D01*
G75*
G02*
X123715000Y-80725000I150000J0D01*
G01*
G37*
G36*
G01*
X122445000Y-80725000D02*
X122745000Y-80725000D01*
G75*
G02*
X122895000Y-80875000I0J-150000D01*
G01*
X122895000Y-82625000D01*
G75*
G02*
X122745000Y-82775000I-150000J0D01*
G01*
X122445000Y-82775000D01*
G75*
G02*
X122295000Y-82625000I0J150000D01*
G01*
X122295000Y-80875000D01*
G75*
G02*
X122445000Y-80725000I150000J0D01*
G01*
G37*
G36*
G01*
X121175000Y-80725000D02*
X121475000Y-80725000D01*
G75*
G02*
X121625000Y-80875000I0J-150000D01*
G01*
X121625000Y-82625000D01*
G75*
G02*
X121475000Y-82775000I-150000J0D01*
G01*
X121175000Y-82775000D01*
G75*
G02*
X121025000Y-82625000I0J150000D01*
G01*
X121025000Y-80875000D01*
G75*
G02*
X121175000Y-80725000I150000J0D01*
G01*
G37*
G36*
G01*
X119905000Y-80725000D02*
X120205000Y-80725000D01*
G75*
G02*
X120355000Y-80875000I0J-150000D01*
G01*
X120355000Y-82625000D01*
G75*
G02*
X120205000Y-82775000I-150000J0D01*
G01*
X119905000Y-82775000D01*
G75*
G02*
X119755000Y-82625000I0J150000D01*
G01*
X119755000Y-80875000D01*
G75*
G02*
X119905000Y-80725000I150000J0D01*
G01*
G37*
G36*
G01*
X119905000Y-90025000D02*
X120205000Y-90025000D01*
G75*
G02*
X120355000Y-90175000I0J-150000D01*
G01*
X120355000Y-91925000D01*
G75*
G02*
X120205000Y-92075000I-150000J0D01*
G01*
X119905000Y-92075000D01*
G75*
G02*
X119755000Y-91925000I0J150000D01*
G01*
X119755000Y-90175000D01*
G75*
G02*
X119905000Y-90025000I150000J0D01*
G01*
G37*
G36*
G01*
X121175000Y-90025000D02*
X121475000Y-90025000D01*
G75*
G02*
X121625000Y-90175000I0J-150000D01*
G01*
X121625000Y-91925000D01*
G75*
G02*
X121475000Y-92075000I-150000J0D01*
G01*
X121175000Y-92075000D01*
G75*
G02*
X121025000Y-91925000I0J150000D01*
G01*
X121025000Y-90175000D01*
G75*
G02*
X121175000Y-90025000I150000J0D01*
G01*
G37*
G36*
G01*
X122445000Y-90025000D02*
X122745000Y-90025000D01*
G75*
G02*
X122895000Y-90175000I0J-150000D01*
G01*
X122895000Y-91925000D01*
G75*
G02*
X122745000Y-92075000I-150000J0D01*
G01*
X122445000Y-92075000D01*
G75*
G02*
X122295000Y-91925000I0J150000D01*
G01*
X122295000Y-90175000D01*
G75*
G02*
X122445000Y-90025000I150000J0D01*
G01*
G37*
G36*
G01*
X123715000Y-90025000D02*
X124015000Y-90025000D01*
G75*
G02*
X124165000Y-90175000I0J-150000D01*
G01*
X124165000Y-91925000D01*
G75*
G02*
X124015000Y-92075000I-150000J0D01*
G01*
X123715000Y-92075000D01*
G75*
G02*
X123565000Y-91925000I0J150000D01*
G01*
X123565000Y-90175000D01*
G75*
G02*
X123715000Y-90025000I150000J0D01*
G01*
G37*
G36*
G01*
X124985000Y-90025000D02*
X125285000Y-90025000D01*
G75*
G02*
X125435000Y-90175000I0J-150000D01*
G01*
X125435000Y-91925000D01*
G75*
G02*
X125285000Y-92075000I-150000J0D01*
G01*
X124985000Y-92075000D01*
G75*
G02*
X124835000Y-91925000I0J150000D01*
G01*
X124835000Y-90175000D01*
G75*
G02*
X124985000Y-90025000I150000J0D01*
G01*
G37*
G36*
G01*
X126255000Y-90025000D02*
X126555000Y-90025000D01*
G75*
G02*
X126705000Y-90175000I0J-150000D01*
G01*
X126705000Y-91925000D01*
G75*
G02*
X126555000Y-92075000I-150000J0D01*
G01*
X126255000Y-92075000D01*
G75*
G02*
X126105000Y-91925000I0J150000D01*
G01*
X126105000Y-90175000D01*
G75*
G02*
X126255000Y-90025000I150000J0D01*
G01*
G37*
G36*
G01*
X127525000Y-90025000D02*
X127825000Y-90025000D01*
G75*
G02*
X127975000Y-90175000I0J-150000D01*
G01*
X127975000Y-91925000D01*
G75*
G02*
X127825000Y-92075000I-150000J0D01*
G01*
X127525000Y-92075000D01*
G75*
G02*
X127375000Y-91925000I0J150000D01*
G01*
X127375000Y-90175000D01*
G75*
G02*
X127525000Y-90025000I150000J0D01*
G01*
G37*
G36*
G01*
X128795000Y-90025000D02*
X129095000Y-90025000D01*
G75*
G02*
X129245000Y-90175000I0J-150000D01*
G01*
X129245000Y-91925000D01*
G75*
G02*
X129095000Y-92075000I-150000J0D01*
G01*
X128795000Y-92075000D01*
G75*
G02*
X128645000Y-91925000I0J150000D01*
G01*
X128645000Y-90175000D01*
G75*
G02*
X128795000Y-90025000I150000J0D01*
G01*
G37*
%TD*%
%TO.C,U102*%
G36*
G01*
X121610000Y-101200000D02*
X121310000Y-101200000D01*
G75*
G02*
X121160000Y-101050000I0J150000D01*
G01*
X121160000Y-99400000D01*
G75*
G02*
X121310000Y-99250000I150000J0D01*
G01*
X121610000Y-99250000D01*
G75*
G02*
X121760000Y-99400000I0J-150000D01*
G01*
X121760000Y-101050000D01*
G75*
G02*
X121610000Y-101200000I-150000J0D01*
G01*
G37*
G36*
G01*
X122880000Y-101200000D02*
X122580000Y-101200000D01*
G75*
G02*
X122430000Y-101050000I0J150000D01*
G01*
X122430000Y-99400000D01*
G75*
G02*
X122580000Y-99250000I150000J0D01*
G01*
X122880000Y-99250000D01*
G75*
G02*
X123030000Y-99400000I0J-150000D01*
G01*
X123030000Y-101050000D01*
G75*
G02*
X122880000Y-101200000I-150000J0D01*
G01*
G37*
G36*
G01*
X124150000Y-101200000D02*
X123850000Y-101200000D01*
G75*
G02*
X123700000Y-101050000I0J150000D01*
G01*
X123700000Y-99400000D01*
G75*
G02*
X123850000Y-99250000I150000J0D01*
G01*
X124150000Y-99250000D01*
G75*
G02*
X124300000Y-99400000I0J-150000D01*
G01*
X124300000Y-101050000D01*
G75*
G02*
X124150000Y-101200000I-150000J0D01*
G01*
G37*
G36*
G01*
X125420000Y-101200000D02*
X125120000Y-101200000D01*
G75*
G02*
X124970000Y-101050000I0J150000D01*
G01*
X124970000Y-99400000D01*
G75*
G02*
X125120000Y-99250000I150000J0D01*
G01*
X125420000Y-99250000D01*
G75*
G02*
X125570000Y-99400000I0J-150000D01*
G01*
X125570000Y-101050000D01*
G75*
G02*
X125420000Y-101200000I-150000J0D01*
G01*
G37*
G36*
G01*
X125420000Y-96250000D02*
X125120000Y-96250000D01*
G75*
G02*
X124970000Y-96100000I0J150000D01*
G01*
X124970000Y-94450000D01*
G75*
G02*
X125120000Y-94300000I150000J0D01*
G01*
X125420000Y-94300000D01*
G75*
G02*
X125570000Y-94450000I0J-150000D01*
G01*
X125570000Y-96100000D01*
G75*
G02*
X125420000Y-96250000I-150000J0D01*
G01*
G37*
G36*
G01*
X124150000Y-96250000D02*
X123850000Y-96250000D01*
G75*
G02*
X123700000Y-96100000I0J150000D01*
G01*
X123700000Y-94450000D01*
G75*
G02*
X123850000Y-94300000I150000J0D01*
G01*
X124150000Y-94300000D01*
G75*
G02*
X124300000Y-94450000I0J-150000D01*
G01*
X124300000Y-96100000D01*
G75*
G02*
X124150000Y-96250000I-150000J0D01*
G01*
G37*
G36*
G01*
X122880000Y-96250000D02*
X122580000Y-96250000D01*
G75*
G02*
X122430000Y-96100000I0J150000D01*
G01*
X122430000Y-94450000D01*
G75*
G02*
X122580000Y-94300000I150000J0D01*
G01*
X122880000Y-94300000D01*
G75*
G02*
X123030000Y-94450000I0J-150000D01*
G01*
X123030000Y-96100000D01*
G75*
G02*
X122880000Y-96250000I-150000J0D01*
G01*
G37*
G36*
G01*
X121610000Y-96250000D02*
X121310000Y-96250000D01*
G75*
G02*
X121160000Y-96100000I0J150000D01*
G01*
X121160000Y-94450000D01*
G75*
G02*
X121310000Y-94300000I150000J0D01*
G01*
X121610000Y-94300000D01*
G75*
G02*
X121760000Y-94450000I0J-150000D01*
G01*
X121760000Y-96100000D01*
G75*
G02*
X121610000Y-96250000I-150000J0D01*
G01*
G37*
%TD*%
M02*
