M48
; DRILL file {KiCad (5.1.10)-1} date 10/14/21 15:31:44
; FORMAT={-:-/ absolute / inch / decimal}
; #@! TF.CreationDate,2021-10-14T15:31:44-03:00
; #@! TF.GenerationSoftware,Kicad,Pcbnew,(5.1.10)-1
; #@! TF.FileFunction,Plated,1,2,PTH
FMAT,2
INCH
T1C0.0157
T2C0.0394
T3C0.0984
%
G90
G05
T1
X4.1929Y-3.6614
X4.2028Y-3.4843
X4.5965Y-3.7008
X4.5965Y-3.75
X4.626Y-3.6713
X4.626Y-3.7795
X4.7182Y-3.6873
X4.8228Y-3.8681
X4.8319Y-3.672
X4.9016Y-3.8386
X4.9766Y-3.6478
X4.9803Y-3.3071
X4.9803Y-3.75
X5.0787Y-3.1496
X5.0787Y-3.8681
X5.125Y-3.3041
X5.2067Y-3.6516
X5.2264Y-3.8386
X5.2756Y-3.7205
X5.4331Y-3.4744
X5.4626Y-3.5827
T2
X4.0157Y-3.3433
X4.0157Y-3.4433
X4.0157Y-3.5433
X4.0157Y-3.6433
X4.0157Y-3.7433
X4.0157Y-3.8433
X5.5118Y-3.4728
X5.5118Y-3.5728
X5.5118Y-3.6728
X5.5118Y-3.7728
T3
X4.2224Y-3.2283
X4.2224Y-3.9173
X5.4528Y-3.2283
T0
M30
