%TF.GenerationSoftware,KiCad,Pcbnew,(5.1.10)-1*%
%TF.CreationDate,2021-10-14T15:31:21-03:00*%
%TF.ProjectId,RTC DS3231,52544320-4453-4333-9233-312e6b696361,1*%
%TF.SameCoordinates,Original*%
%TF.FileFunction,Copper,L1,Top*%
%TF.FilePolarity,Positive*%
%FSLAX46Y46*%
G04 Gerber Fmt 4.6, Leading zero omitted, Abs format (unit mm)*
G04 Created by KiCad (PCBNEW (5.1.10)-1) date 2021-10-14 15:31:21*
%MOMM*%
%LPD*%
G01*
G04 APERTURE LIST*
%TA.AperFunction,ComponentPad*%
%ADD10R,1.700000X1.700000*%
%TD*%
%TA.AperFunction,ComponentPad*%
%ADD11O,1.700000X1.700000*%
%TD*%
%TA.AperFunction,SMDPad,CuDef*%
%ADD12R,0.900000X0.400000*%
%TD*%
%TA.AperFunction,SMDPad,CuDef*%
%ADD13R,1.500000X1.000000*%
%TD*%
%TA.AperFunction,SMDPad,CuDef*%
%ADD14C,0.500000*%
%TD*%
%TA.AperFunction,ComponentPad*%
%ADD15C,2.900000*%
%TD*%
%TA.AperFunction,ConnectorPad*%
%ADD16C,5.000000*%
%TD*%
%TA.AperFunction,ViaPad*%
%ADD17C,0.800000*%
%TD*%
%TA.AperFunction,Conductor*%
%ADD18C,0.250000*%
%TD*%
%TA.AperFunction,Conductor*%
%ADD19C,0.300000*%
%TD*%
%TA.AperFunction,Conductor*%
%ADD20C,0.254000*%
%TD*%
%TA.AperFunction,Conductor*%
%ADD21C,0.100000*%
%TD*%
G04 APERTURE END LIST*
D10*
%TO.P,J102,1*%
%TO.N,/SCL*%
X140000000Y-88210000D03*
D11*
%TO.P,J102,2*%
%TO.N,/SDA*%
X140000000Y-90750000D03*
%TO.P,J102,3*%
%TO.N,VCC*%
X140000000Y-93290000D03*
%TO.P,J102,4*%
%TO.N,GND*%
X140000000Y-95830000D03*
%TD*%
D12*
%TO.P,RN102,5*%
%TO.N,VCC*%
X113922400Y-93421100D03*
%TO.P,RN102,6*%
X113922400Y-94221100D03*
%TO.P,RN102,7*%
X113922400Y-95021100D03*
%TO.P,RN102,8*%
X113922400Y-95821100D03*
%TO.P,RN102,4*%
%TO.N,/32KHZ*%
X115622400Y-93421100D03*
%TO.P,RN102,1*%
%TO.N,/SDA*%
X115622400Y-95821100D03*
%TO.P,RN102,3*%
%TO.N,/SQW*%
X115622400Y-94221100D03*
%TO.P,RN102,2*%
%TO.N,/SCL*%
X115622400Y-95021100D03*
%TD*%
D13*
%TO.P,JP103,1*%
%TO.N,GND*%
X136500000Y-100800000D03*
%TO.P,JP103,2*%
%TO.N,Net-(JP103-Pad2)*%
X136500000Y-99500000D03*
%TD*%
%TO.P,JP102,1*%
%TO.N,GND*%
X132750000Y-100800000D03*
%TO.P,JP102,2*%
%TO.N,Net-(JP102-Pad2)*%
X132750000Y-99500000D03*
%TD*%
%TO.P,JP101,1*%
%TO.N,GND*%
X129000000Y-100800000D03*
%TO.P,JP101,2*%
%TO.N,Net-(JP101-Pad2)*%
X129000000Y-99500000D03*
%TD*%
%TO.P,D101,2*%
%TO.N,Net-(D101-Pad2)*%
%TA.AperFunction,SMDPad,CuDef*%
G36*
G01*
X115092400Y-81400000D02*
X115092400Y-80600000D01*
G75*
G02*
X115342400Y-80350000I250000J0D01*
G01*
X116167400Y-80350000D01*
G75*
G02*
X116417400Y-80600000I0J-250000D01*
G01*
X116417400Y-81400000D01*
G75*
G02*
X116167400Y-81650000I-250000J0D01*
G01*
X115342400Y-81650000D01*
G75*
G02*
X115092400Y-81400000I0J250000D01*
G01*
G37*
%TD.AperFunction*%
%TO.P,D101,1*%
%TO.N,GND*%
%TA.AperFunction,SMDPad,CuDef*%
G36*
G01*
X113167400Y-81400000D02*
X113167400Y-80600000D01*
G75*
G02*
X113417400Y-80350000I250000J0D01*
G01*
X114242400Y-80350000D01*
G75*
G02*
X114492400Y-80600000I0J-250000D01*
G01*
X114492400Y-81400000D01*
G75*
G02*
X114242400Y-81650000I-250000J0D01*
G01*
X113417400Y-81650000D01*
G75*
G02*
X113167400Y-81400000I0J250000D01*
G01*
G37*
%TD.AperFunction*%
%TD*%
%TO.P,C101,2*%
%TO.N,GND*%
%TA.AperFunction,SMDPad,CuDef*%
G36*
G01*
X115222400Y-87000100D02*
X115222400Y-86050100D01*
G75*
G02*
X115472400Y-85800100I250000J0D01*
G01*
X115972400Y-85800100D01*
G75*
G02*
X116222400Y-86050100I0J-250000D01*
G01*
X116222400Y-87000100D01*
G75*
G02*
X115972400Y-87250100I-250000J0D01*
G01*
X115472400Y-87250100D01*
G75*
G02*
X115222400Y-87000100I0J250000D01*
G01*
G37*
%TD.AperFunction*%
%TO.P,C101,1*%
%TO.N,VCC*%
%TA.AperFunction,SMDPad,CuDef*%
G36*
G01*
X113322400Y-87000100D02*
X113322400Y-86050100D01*
G75*
G02*
X113572400Y-85800100I250000J0D01*
G01*
X114072400Y-85800100D01*
G75*
G02*
X114322400Y-86050100I0J-250000D01*
G01*
X114322400Y-87000100D01*
G75*
G02*
X114072400Y-87250100I-250000J0D01*
G01*
X113572400Y-87250100D01*
G75*
G02*
X113322400Y-87000100I0J250000D01*
G01*
G37*
%TD.AperFunction*%
%TD*%
%TO.P,C102,1*%
%TO.N,VCC*%
%TA.AperFunction,SMDPad,CuDef*%
G36*
G01*
X113322400Y-90124300D02*
X113322400Y-89174300D01*
G75*
G02*
X113572400Y-88924300I250000J0D01*
G01*
X114072400Y-88924300D01*
G75*
G02*
X114322400Y-89174300I0J-250000D01*
G01*
X114322400Y-90124300D01*
G75*
G02*
X114072400Y-90374300I-250000J0D01*
G01*
X113572400Y-90374300D01*
G75*
G02*
X113322400Y-90124300I0J250000D01*
G01*
G37*
%TD.AperFunction*%
%TO.P,C102,2*%
%TO.N,GND*%
%TA.AperFunction,SMDPad,CuDef*%
G36*
G01*
X115222400Y-90124300D02*
X115222400Y-89174300D01*
G75*
G02*
X115472400Y-88924300I250000J0D01*
G01*
X115972400Y-88924300D01*
G75*
G02*
X116222400Y-89174300I0J-250000D01*
G01*
X116222400Y-90124300D01*
G75*
G02*
X115972400Y-90374300I-250000J0D01*
G01*
X115472400Y-90374300D01*
G75*
G02*
X115222400Y-90124300I0J250000D01*
G01*
G37*
%TD.AperFunction*%
%TD*%
%TO.P,D102,1*%
%TO.N,/VBAT*%
%TA.AperFunction,SMDPad,CuDef*%
G36*
G01*
X132706250Y-91362500D02*
X131793750Y-91362500D01*
G75*
G02*
X131550000Y-91118750I0J243750D01*
G01*
X131550000Y-90631250D01*
G75*
G02*
X131793750Y-90387500I243750J0D01*
G01*
X132706250Y-90387500D01*
G75*
G02*
X132950000Y-90631250I0J-243750D01*
G01*
X132950000Y-91118750D01*
G75*
G02*
X132706250Y-91362500I-243750J0D01*
G01*
G37*
%TD.AperFunction*%
%TO.P,D102,2*%
%TO.N,Net-(D102-Pad2)*%
%TA.AperFunction,SMDPad,CuDef*%
G36*
G01*
X132706250Y-89487500D02*
X131793750Y-89487500D01*
G75*
G02*
X131550000Y-89243750I0J243750D01*
G01*
X131550000Y-88756250D01*
G75*
G02*
X131793750Y-88512500I243750J0D01*
G01*
X132706250Y-88512500D01*
G75*
G02*
X132950000Y-88756250I0J-243750D01*
G01*
X132950000Y-89243750D01*
G75*
G02*
X132706250Y-89487500I-243750J0D01*
G01*
G37*
%TD.AperFunction*%
%TD*%
D14*
%TO.P,FID101,*%
%TO.N,*%
X102000000Y-80000000D03*
%TD*%
%TO.P,FID102,*%
%TO.N,*%
X102000000Y-101500000D03*
%TD*%
%TO.P,FID103,*%
%TO.N,*%
X133250000Y-80000000D03*
%TD*%
D15*
%TO.P,H101,1*%
%TO.N,N/C*%
X107250000Y-82000000D03*
D16*
X107250000Y-82000000D03*
%TD*%
%TO.P,H102,1*%
%TO.N,N/C*%
X138500000Y-82000000D03*
D15*
X138500000Y-82000000D03*
%TD*%
D16*
%TO.P,H103,1*%
%TO.N,N/C*%
X107250000Y-99500000D03*
D15*
X107250000Y-99500000D03*
%TD*%
D10*
%TO.P,J101,1*%
%TO.N,/32KHZ*%
X102000000Y-84920000D03*
D11*
%TO.P,J101,2*%
%TO.N,/SQW*%
X102000000Y-87460000D03*
%TO.P,J101,3*%
%TO.N,/SCL*%
X102000000Y-90000000D03*
%TO.P,J101,4*%
%TO.N,/SDA*%
X102000000Y-92540000D03*
%TO.P,J101,5*%
%TO.N,VCC*%
X102000000Y-95080000D03*
%TO.P,J101,6*%
%TO.N,GND*%
X102000000Y-97620000D03*
%TD*%
%TO.P,R101,2*%
%TO.N,Net-(D101-Pad2)*%
%TA.AperFunction,SMDPad,CuDef*%
G36*
G01*
X115172400Y-83889001D02*
X115172400Y-82988999D01*
G75*
G02*
X115422399Y-82739000I249999J0D01*
G01*
X115947401Y-82739000D01*
G75*
G02*
X116197400Y-82988999I0J-249999D01*
G01*
X116197400Y-83889001D01*
G75*
G02*
X115947401Y-84139000I-249999J0D01*
G01*
X115422399Y-84139000D01*
G75*
G02*
X115172400Y-83889001I0J249999D01*
G01*
G37*
%TD.AperFunction*%
%TO.P,R101,1*%
%TO.N,VCC*%
%TA.AperFunction,SMDPad,CuDef*%
G36*
G01*
X113347400Y-83889001D02*
X113347400Y-82988999D01*
G75*
G02*
X113597399Y-82739000I249999J0D01*
G01*
X114122401Y-82739000D01*
G75*
G02*
X114372400Y-82988999I0J-249999D01*
G01*
X114372400Y-83889001D01*
G75*
G02*
X114122401Y-84139000I-249999J0D01*
G01*
X113597399Y-84139000D01*
G75*
G02*
X113347400Y-83889001I0J249999D01*
G01*
G37*
%TD.AperFunction*%
%TD*%
%TO.P,R102,1*%
%TO.N,VCC*%
%TA.AperFunction,SMDPad,CuDef*%
G36*
G01*
X131799999Y-83412500D02*
X132700001Y-83412500D01*
G75*
G02*
X132950000Y-83662499I0J-249999D01*
G01*
X132950000Y-84187501D01*
G75*
G02*
X132700001Y-84437500I-249999J0D01*
G01*
X131799999Y-84437500D01*
G75*
G02*
X131550000Y-84187501I0J249999D01*
G01*
X131550000Y-83662499D01*
G75*
G02*
X131799999Y-83412500I249999J0D01*
G01*
G37*
%TD.AperFunction*%
%TO.P,R102,2*%
%TO.N,Net-(D102-Pad2)*%
%TA.AperFunction,SMDPad,CuDef*%
G36*
G01*
X131799999Y-85237500D02*
X132700001Y-85237500D01*
G75*
G02*
X132950000Y-85487499I0J-249999D01*
G01*
X132950000Y-86012501D01*
G75*
G02*
X132700001Y-86262500I-249999J0D01*
G01*
X131799999Y-86262500D01*
G75*
G02*
X131550000Y-86012501I0J249999D01*
G01*
X131550000Y-85487499D01*
G75*
G02*
X131799999Y-85237500I249999J0D01*
G01*
G37*
%TD.AperFunction*%
%TD*%
D12*
%TO.P,RN101,2*%
%TO.N,Net-(JP103-Pad2)*%
X115622400Y-100050000D03*
%TO.P,RN101,3*%
%TO.N,Net-(JP102-Pad2)*%
X115622400Y-99250000D03*
%TO.P,RN101,1*%
%TO.N,Net-(RN101-Pad1)*%
X115622400Y-100850000D03*
%TO.P,RN101,4*%
%TO.N,Net-(JP101-Pad2)*%
X115622400Y-98450000D03*
%TO.P,RN101,8*%
%TO.N,VCC*%
X113922400Y-100850000D03*
%TO.P,RN101,7*%
X113922400Y-100050000D03*
%TO.P,RN101,6*%
X113922400Y-99250000D03*
%TO.P,RN101,5*%
X113922400Y-98450000D03*
%TD*%
%TO.P,U101,1*%
%TO.N,/32KHZ*%
%TA.AperFunction,SMDPad,CuDef*%
G36*
G01*
X128795000Y-80725000D02*
X129095000Y-80725000D01*
G75*
G02*
X129245000Y-80875000I0J-150000D01*
G01*
X129245000Y-82625000D01*
G75*
G02*
X129095000Y-82775000I-150000J0D01*
G01*
X128795000Y-82775000D01*
G75*
G02*
X128645000Y-82625000I0J150000D01*
G01*
X128645000Y-80875000D01*
G75*
G02*
X128795000Y-80725000I150000J0D01*
G01*
G37*
%TD.AperFunction*%
%TO.P,U101,2*%
%TO.N,VCC*%
%TA.AperFunction,SMDPad,CuDef*%
G36*
G01*
X127525000Y-80725000D02*
X127825000Y-80725000D01*
G75*
G02*
X127975000Y-80875000I0J-150000D01*
G01*
X127975000Y-82625000D01*
G75*
G02*
X127825000Y-82775000I-150000J0D01*
G01*
X127525000Y-82775000D01*
G75*
G02*
X127375000Y-82625000I0J150000D01*
G01*
X127375000Y-80875000D01*
G75*
G02*
X127525000Y-80725000I150000J0D01*
G01*
G37*
%TD.AperFunction*%
%TO.P,U101,3*%
%TO.N,/SQW*%
%TA.AperFunction,SMDPad,CuDef*%
G36*
G01*
X126255000Y-80725000D02*
X126555000Y-80725000D01*
G75*
G02*
X126705000Y-80875000I0J-150000D01*
G01*
X126705000Y-82625000D01*
G75*
G02*
X126555000Y-82775000I-150000J0D01*
G01*
X126255000Y-82775000D01*
G75*
G02*
X126105000Y-82625000I0J150000D01*
G01*
X126105000Y-80875000D01*
G75*
G02*
X126255000Y-80725000I150000J0D01*
G01*
G37*
%TD.AperFunction*%
%TO.P,U101,4*%
%TO.N,Net-(U101-Pad4)*%
%TA.AperFunction,SMDPad,CuDef*%
G36*
G01*
X124985000Y-80725000D02*
X125285000Y-80725000D01*
G75*
G02*
X125435000Y-80875000I0J-150000D01*
G01*
X125435000Y-82625000D01*
G75*
G02*
X125285000Y-82775000I-150000J0D01*
G01*
X124985000Y-82775000D01*
G75*
G02*
X124835000Y-82625000I0J150000D01*
G01*
X124835000Y-80875000D01*
G75*
G02*
X124985000Y-80725000I150000J0D01*
G01*
G37*
%TD.AperFunction*%
%TO.P,U101,5*%
%TO.N,GND*%
%TA.AperFunction,SMDPad,CuDef*%
G36*
G01*
X123715000Y-80725000D02*
X124015000Y-80725000D01*
G75*
G02*
X124165000Y-80875000I0J-150000D01*
G01*
X124165000Y-82625000D01*
G75*
G02*
X124015000Y-82775000I-150000J0D01*
G01*
X123715000Y-82775000D01*
G75*
G02*
X123565000Y-82625000I0J150000D01*
G01*
X123565000Y-80875000D01*
G75*
G02*
X123715000Y-80725000I150000J0D01*
G01*
G37*
%TD.AperFunction*%
%TO.P,U101,6*%
%TA.AperFunction,SMDPad,CuDef*%
G36*
G01*
X122445000Y-80725000D02*
X122745000Y-80725000D01*
G75*
G02*
X122895000Y-80875000I0J-150000D01*
G01*
X122895000Y-82625000D01*
G75*
G02*
X122745000Y-82775000I-150000J0D01*
G01*
X122445000Y-82775000D01*
G75*
G02*
X122295000Y-82625000I0J150000D01*
G01*
X122295000Y-80875000D01*
G75*
G02*
X122445000Y-80725000I150000J0D01*
G01*
G37*
%TD.AperFunction*%
%TO.P,U101,7*%
%TA.AperFunction,SMDPad,CuDef*%
G36*
G01*
X121175000Y-80725000D02*
X121475000Y-80725000D01*
G75*
G02*
X121625000Y-80875000I0J-150000D01*
G01*
X121625000Y-82625000D01*
G75*
G02*
X121475000Y-82775000I-150000J0D01*
G01*
X121175000Y-82775000D01*
G75*
G02*
X121025000Y-82625000I0J150000D01*
G01*
X121025000Y-80875000D01*
G75*
G02*
X121175000Y-80725000I150000J0D01*
G01*
G37*
%TD.AperFunction*%
%TO.P,U101,8*%
%TA.AperFunction,SMDPad,CuDef*%
G36*
G01*
X119905000Y-80725000D02*
X120205000Y-80725000D01*
G75*
G02*
X120355000Y-80875000I0J-150000D01*
G01*
X120355000Y-82625000D01*
G75*
G02*
X120205000Y-82775000I-150000J0D01*
G01*
X119905000Y-82775000D01*
G75*
G02*
X119755000Y-82625000I0J150000D01*
G01*
X119755000Y-80875000D01*
G75*
G02*
X119905000Y-80725000I150000J0D01*
G01*
G37*
%TD.AperFunction*%
%TO.P,U101,9*%
%TA.AperFunction,SMDPad,CuDef*%
G36*
G01*
X119905000Y-90025000D02*
X120205000Y-90025000D01*
G75*
G02*
X120355000Y-90175000I0J-150000D01*
G01*
X120355000Y-91925000D01*
G75*
G02*
X120205000Y-92075000I-150000J0D01*
G01*
X119905000Y-92075000D01*
G75*
G02*
X119755000Y-91925000I0J150000D01*
G01*
X119755000Y-90175000D01*
G75*
G02*
X119905000Y-90025000I150000J0D01*
G01*
G37*
%TD.AperFunction*%
%TO.P,U101,10*%
%TA.AperFunction,SMDPad,CuDef*%
G36*
G01*
X121175000Y-90025000D02*
X121475000Y-90025000D01*
G75*
G02*
X121625000Y-90175000I0J-150000D01*
G01*
X121625000Y-91925000D01*
G75*
G02*
X121475000Y-92075000I-150000J0D01*
G01*
X121175000Y-92075000D01*
G75*
G02*
X121025000Y-91925000I0J150000D01*
G01*
X121025000Y-90175000D01*
G75*
G02*
X121175000Y-90025000I150000J0D01*
G01*
G37*
%TD.AperFunction*%
%TO.P,U101,11*%
%TA.AperFunction,SMDPad,CuDef*%
G36*
G01*
X122445000Y-90025000D02*
X122745000Y-90025000D01*
G75*
G02*
X122895000Y-90175000I0J-150000D01*
G01*
X122895000Y-91925000D01*
G75*
G02*
X122745000Y-92075000I-150000J0D01*
G01*
X122445000Y-92075000D01*
G75*
G02*
X122295000Y-91925000I0J150000D01*
G01*
X122295000Y-90175000D01*
G75*
G02*
X122445000Y-90025000I150000J0D01*
G01*
G37*
%TD.AperFunction*%
%TO.P,U101,12*%
%TA.AperFunction,SMDPad,CuDef*%
G36*
G01*
X123715000Y-90025000D02*
X124015000Y-90025000D01*
G75*
G02*
X124165000Y-90175000I0J-150000D01*
G01*
X124165000Y-91925000D01*
G75*
G02*
X124015000Y-92075000I-150000J0D01*
G01*
X123715000Y-92075000D01*
G75*
G02*
X123565000Y-91925000I0J150000D01*
G01*
X123565000Y-90175000D01*
G75*
G02*
X123715000Y-90025000I150000J0D01*
G01*
G37*
%TD.AperFunction*%
%TO.P,U101,13*%
%TA.AperFunction,SMDPad,CuDef*%
G36*
G01*
X124985000Y-90025000D02*
X125285000Y-90025000D01*
G75*
G02*
X125435000Y-90175000I0J-150000D01*
G01*
X125435000Y-91925000D01*
G75*
G02*
X125285000Y-92075000I-150000J0D01*
G01*
X124985000Y-92075000D01*
G75*
G02*
X124835000Y-91925000I0J150000D01*
G01*
X124835000Y-90175000D01*
G75*
G02*
X124985000Y-90025000I150000J0D01*
G01*
G37*
%TD.AperFunction*%
%TO.P,U101,14*%
%TO.N,/VBAT*%
%TA.AperFunction,SMDPad,CuDef*%
G36*
G01*
X126255000Y-90025000D02*
X126555000Y-90025000D01*
G75*
G02*
X126705000Y-90175000I0J-150000D01*
G01*
X126705000Y-91925000D01*
G75*
G02*
X126555000Y-92075000I-150000J0D01*
G01*
X126255000Y-92075000D01*
G75*
G02*
X126105000Y-91925000I0J150000D01*
G01*
X126105000Y-90175000D01*
G75*
G02*
X126255000Y-90025000I150000J0D01*
G01*
G37*
%TD.AperFunction*%
%TO.P,U101,15*%
%TO.N,/SDA*%
%TA.AperFunction,SMDPad,CuDef*%
G36*
G01*
X127525000Y-90025000D02*
X127825000Y-90025000D01*
G75*
G02*
X127975000Y-90175000I0J-150000D01*
G01*
X127975000Y-91925000D01*
G75*
G02*
X127825000Y-92075000I-150000J0D01*
G01*
X127525000Y-92075000D01*
G75*
G02*
X127375000Y-91925000I0J150000D01*
G01*
X127375000Y-90175000D01*
G75*
G02*
X127525000Y-90025000I150000J0D01*
G01*
G37*
%TD.AperFunction*%
%TO.P,U101,16*%
%TO.N,/SCL*%
%TA.AperFunction,SMDPad,CuDef*%
G36*
G01*
X128795000Y-90025000D02*
X129095000Y-90025000D01*
G75*
G02*
X129245000Y-90175000I0J-150000D01*
G01*
X129245000Y-91925000D01*
G75*
G02*
X129095000Y-92075000I-150000J0D01*
G01*
X128795000Y-92075000D01*
G75*
G02*
X128645000Y-91925000I0J150000D01*
G01*
X128645000Y-90175000D01*
G75*
G02*
X128795000Y-90025000I150000J0D01*
G01*
G37*
%TD.AperFunction*%
%TD*%
%TO.P,U102,1*%
%TO.N,Net-(JP101-Pad2)*%
%TA.AperFunction,SMDPad,CuDef*%
G36*
G01*
X121610000Y-101200000D02*
X121310000Y-101200000D01*
G75*
G02*
X121160000Y-101050000I0J150000D01*
G01*
X121160000Y-99400000D01*
G75*
G02*
X121310000Y-99250000I150000J0D01*
G01*
X121610000Y-99250000D01*
G75*
G02*
X121760000Y-99400000I0J-150000D01*
G01*
X121760000Y-101050000D01*
G75*
G02*
X121610000Y-101200000I-150000J0D01*
G01*
G37*
%TD.AperFunction*%
%TO.P,U102,2*%
%TO.N,Net-(JP102-Pad2)*%
%TA.AperFunction,SMDPad,CuDef*%
G36*
G01*
X122880000Y-101200000D02*
X122580000Y-101200000D01*
G75*
G02*
X122430000Y-101050000I0J150000D01*
G01*
X122430000Y-99400000D01*
G75*
G02*
X122580000Y-99250000I150000J0D01*
G01*
X122880000Y-99250000D01*
G75*
G02*
X123030000Y-99400000I0J-150000D01*
G01*
X123030000Y-101050000D01*
G75*
G02*
X122880000Y-101200000I-150000J0D01*
G01*
G37*
%TD.AperFunction*%
%TO.P,U102,3*%
%TO.N,Net-(JP103-Pad2)*%
%TA.AperFunction,SMDPad,CuDef*%
G36*
G01*
X124150000Y-101200000D02*
X123850000Y-101200000D01*
G75*
G02*
X123700000Y-101050000I0J150000D01*
G01*
X123700000Y-99400000D01*
G75*
G02*
X123850000Y-99250000I150000J0D01*
G01*
X124150000Y-99250000D01*
G75*
G02*
X124300000Y-99400000I0J-150000D01*
G01*
X124300000Y-101050000D01*
G75*
G02*
X124150000Y-101200000I-150000J0D01*
G01*
G37*
%TD.AperFunction*%
%TO.P,U102,4*%
%TO.N,GND*%
%TA.AperFunction,SMDPad,CuDef*%
G36*
G01*
X125420000Y-101200000D02*
X125120000Y-101200000D01*
G75*
G02*
X124970000Y-101050000I0J150000D01*
G01*
X124970000Y-99400000D01*
G75*
G02*
X125120000Y-99250000I150000J0D01*
G01*
X125420000Y-99250000D01*
G75*
G02*
X125570000Y-99400000I0J-150000D01*
G01*
X125570000Y-101050000D01*
G75*
G02*
X125420000Y-101200000I-150000J0D01*
G01*
G37*
%TD.AperFunction*%
%TO.P,U102,5*%
%TO.N,/SCL*%
%TA.AperFunction,SMDPad,CuDef*%
G36*
G01*
X125420000Y-96250000D02*
X125120000Y-96250000D01*
G75*
G02*
X124970000Y-96100000I0J150000D01*
G01*
X124970000Y-94450000D01*
G75*
G02*
X125120000Y-94300000I150000J0D01*
G01*
X125420000Y-94300000D01*
G75*
G02*
X125570000Y-94450000I0J-150000D01*
G01*
X125570000Y-96100000D01*
G75*
G02*
X125420000Y-96250000I-150000J0D01*
G01*
G37*
%TD.AperFunction*%
%TO.P,U102,6*%
%TO.N,/SDA*%
%TA.AperFunction,SMDPad,CuDef*%
G36*
G01*
X124150000Y-96250000D02*
X123850000Y-96250000D01*
G75*
G02*
X123700000Y-96100000I0J150000D01*
G01*
X123700000Y-94450000D01*
G75*
G02*
X123850000Y-94300000I150000J0D01*
G01*
X124150000Y-94300000D01*
G75*
G02*
X124300000Y-94450000I0J-150000D01*
G01*
X124300000Y-96100000D01*
G75*
G02*
X124150000Y-96250000I-150000J0D01*
G01*
G37*
%TD.AperFunction*%
%TO.P,U102,7*%
%TO.N,GND*%
%TA.AperFunction,SMDPad,CuDef*%
G36*
G01*
X122880000Y-96250000D02*
X122580000Y-96250000D01*
G75*
G02*
X122430000Y-96100000I0J150000D01*
G01*
X122430000Y-94450000D01*
G75*
G02*
X122580000Y-94300000I150000J0D01*
G01*
X122880000Y-94300000D01*
G75*
G02*
X123030000Y-94450000I0J-150000D01*
G01*
X123030000Y-96100000D01*
G75*
G02*
X122880000Y-96250000I-150000J0D01*
G01*
G37*
%TD.AperFunction*%
%TO.P,U102,8*%
%TO.N,VCC*%
%TA.AperFunction,SMDPad,CuDef*%
G36*
G01*
X121610000Y-96250000D02*
X121310000Y-96250000D01*
G75*
G02*
X121160000Y-96100000I0J150000D01*
G01*
X121160000Y-94450000D01*
G75*
G02*
X121310000Y-94300000I150000J0D01*
G01*
X121610000Y-94300000D01*
G75*
G02*
X121760000Y-94450000I0J-150000D01*
G01*
X121760000Y-96100000D01*
G75*
G02*
X121610000Y-96250000I-150000J0D01*
G01*
G37*
%TD.AperFunction*%
%TD*%
D17*
%TO.N,/VBAT*%
X126405000Y-92655000D03*
X132250000Y-92750000D03*
%TO.N,GND*%
X106500000Y-93000000D03*
X106750000Y-88500000D03*
X122730000Y-93270000D03*
X134000000Y-94500000D03*
%TO.N,VCC*%
X119842500Y-93657500D03*
X130175000Y-83925000D03*
%TO.N,/32KHZ*%
X117500000Y-93250000D03*
X129000000Y-80000000D03*
%TO.N,/SQW*%
X116750000Y-94000000D03*
X126500000Y-84000000D03*
%TO.N,/SCL*%
X116750000Y-95250000D03*
X126500000Y-95250000D03*
X138000000Y-88250000D03*
%TO.N,/SDA*%
X117500000Y-96000000D03*
X138750000Y-91000000D03*
%TO.N,Net-(JP101-Pad2)*%
X122500000Y-98250000D03*
X129000000Y-98250000D03*
%TO.N,Net-(JP102-Pad2)*%
X124500000Y-97500000D03*
X132750000Y-97500000D03*
%TD*%
D18*
%TO.N,/VBAT*%
X126405000Y-91050000D02*
X126405000Y-92655000D01*
X132250000Y-90875000D02*
X132250000Y-92750000D01*
%TO.N,GND*%
X120055000Y-81750000D02*
X121325000Y-81750000D01*
X121325000Y-81750000D02*
X122595000Y-81750000D01*
X122595000Y-81750000D02*
X123865000Y-81750000D01*
X125135000Y-91050000D02*
X123865000Y-91050000D01*
X123865000Y-91050000D02*
X122595000Y-91050000D01*
X122595000Y-91050000D02*
X121325000Y-91050000D01*
X121325000Y-91050000D02*
X120055000Y-91050000D01*
X122730000Y-91185000D02*
X122595000Y-91050000D01*
X122730000Y-95275000D02*
X122730000Y-93270000D01*
X120055000Y-82192500D02*
X120055000Y-81750000D01*
X115722400Y-86525100D02*
X120055000Y-82192500D01*
X120055000Y-81750000D02*
X117805000Y-79500000D01*
X117805000Y-79500000D02*
X114750000Y-79500000D01*
X113829900Y-80420100D02*
X113829900Y-81000000D01*
X114750000Y-79500000D02*
X113829900Y-80420100D01*
X125845000Y-100800000D02*
X129000000Y-100800000D01*
X125270000Y-100225000D02*
X125845000Y-100800000D01*
X132750000Y-100800000D02*
X129000000Y-100800000D01*
X132750000Y-100800000D02*
X136500000Y-100800000D01*
X115722400Y-86525100D02*
X115722400Y-89649300D01*
X140000000Y-98300000D02*
X137500000Y-100800000D01*
X137500000Y-100800000D02*
X136500000Y-100800000D01*
X140000000Y-95830000D02*
X140000000Y-98300000D01*
X102000000Y-97620000D02*
X103880000Y-97620000D01*
X103880000Y-97620000D02*
X106500000Y-95000000D01*
X106500000Y-95000000D02*
X106500000Y-93000000D01*
X113829900Y-81420100D02*
X113829900Y-81000000D01*
X106750000Y-88500000D02*
X113829900Y-81420100D01*
X118654300Y-89649300D02*
X120055000Y-91050000D01*
X115722400Y-89649300D02*
X118654300Y-89649300D01*
X122730000Y-93270000D02*
X122730000Y-91185000D01*
X138670000Y-94500000D02*
X140000000Y-95830000D01*
X134000000Y-94500000D02*
X138670000Y-94500000D01*
%TO.N,VCC*%
X113822400Y-86525100D02*
X113822400Y-89649300D01*
X113859900Y-86487600D02*
X113822400Y-86525100D01*
X113859900Y-83439000D02*
X113859900Y-86487600D01*
X113922400Y-93421100D02*
X113922400Y-94221100D01*
X113922400Y-94221100D02*
X113922400Y-95021100D01*
X113922400Y-95821100D02*
X113922400Y-95021100D01*
X113922400Y-98450000D02*
X113922400Y-99250000D01*
X113922400Y-99250000D02*
X113922400Y-100050000D01*
X113922400Y-100850000D02*
X113922400Y-100050000D01*
X127675000Y-82775000D02*
X128825000Y-83925000D01*
X127675000Y-81750000D02*
X127675000Y-82775000D01*
X113863500Y-95080000D02*
X113922400Y-95021100D01*
X113922400Y-89749300D02*
X113822400Y-89649300D01*
X113922400Y-93421100D02*
X113922400Y-89749300D01*
X113922400Y-95821100D02*
X113922400Y-98450000D01*
X121460000Y-95275000D02*
X119842500Y-93657500D01*
X117435000Y-91250000D02*
X114000000Y-91250000D01*
X130175000Y-83925000D02*
X132250000Y-83925000D01*
X128825000Y-83925000D02*
X130175000Y-83925000D01*
X111976299Y-92274999D02*
X113922400Y-94221100D01*
X104805001Y-92274999D02*
X111976299Y-92274999D01*
X102000000Y-95080000D02*
X104805001Y-92274999D01*
X130175000Y-91498002D02*
X130175000Y-83925000D01*
X132000000Y-93750000D02*
X130175000Y-91498002D01*
X139000000Y-93750000D02*
X132000000Y-93750000D01*
X140000000Y-93290000D02*
X139000000Y-93750000D01*
X119842500Y-93657500D02*
X117435000Y-91250000D01*
%TO.N,Net-(D101-Pad2)*%
X115754900Y-83369000D02*
X115684900Y-83439000D01*
X115754900Y-81000000D02*
X115754900Y-83369000D01*
%TO.N,Net-(D102-Pad2)*%
X132250000Y-85750000D02*
X132250000Y-89000000D01*
D19*
%TO.N,/32KHZ*%
X129000000Y-81805000D02*
X128945000Y-81750000D01*
D18*
X115793500Y-93250000D02*
X115622400Y-93421100D01*
X117500000Y-93250000D02*
X115793500Y-93250000D01*
X129000000Y-81695000D02*
X128945000Y-81750000D01*
X129000000Y-80000000D02*
X129000000Y-81695000D01*
%TO.N,/SQW*%
X115651300Y-94250000D02*
X115622400Y-94221100D01*
X116750000Y-94250000D02*
X115651300Y-94250000D01*
X116750000Y-94000000D02*
X116750000Y-94250000D01*
X126500000Y-81655000D02*
X126405000Y-81750000D01*
X126500000Y-84000000D02*
X126500000Y-81655000D01*
%TO.N,/SCL*%
X115643500Y-95000000D02*
X115622400Y-95021100D01*
X116750000Y-95000000D02*
X115643500Y-95000000D01*
X116750000Y-95250000D02*
X116750000Y-95000000D01*
X125270000Y-95275000D02*
X126475000Y-95275000D01*
X128945000Y-92805000D02*
X128945000Y-91050000D01*
X126475000Y-95275000D02*
X128945000Y-92805000D01*
X139960000Y-88250000D02*
X140000000Y-88210000D01*
X138000000Y-88250000D02*
X139960000Y-88250000D01*
%TO.N,/SDA*%
X115622400Y-95821100D02*
X115801300Y-96000000D01*
X115801300Y-96000000D02*
X117500000Y-96000000D01*
X124000000Y-94300000D02*
X124550000Y-93750000D01*
X124000000Y-95275000D02*
X124000000Y-94300000D01*
X124550000Y-93750000D02*
X127250000Y-93750000D01*
X127675000Y-93325000D02*
X127675000Y-91050000D01*
X127250000Y-93750000D02*
X127675000Y-93325000D01*
X124000000Y-96250000D02*
X123250000Y-97000000D01*
X124000000Y-95275000D02*
X124000000Y-96250000D01*
X118500000Y-97000000D02*
X117500000Y-96000000D01*
X123250000Y-97000000D02*
X118500000Y-97000000D01*
X139750000Y-91000000D02*
X140000000Y-90750000D01*
X138750000Y-91000000D02*
X139750000Y-91000000D01*
%TO.N,Net-(JP101-Pad2)*%
X118800000Y-98450000D02*
X121000000Y-100750000D01*
X115622400Y-98450000D02*
X118800000Y-98450000D01*
X121000000Y-100750000D02*
X121250000Y-101000000D01*
X121460000Y-100790000D02*
X121460000Y-100225000D01*
X121250000Y-101000000D02*
X121460000Y-100790000D01*
X121460000Y-99290000D02*
X122500000Y-98250000D01*
X121460000Y-100225000D02*
X121460000Y-99290000D01*
X129000000Y-98250000D02*
X129000000Y-99500000D01*
%TO.N,Net-(JP102-Pad2)*%
X122730000Y-101200000D02*
X122730000Y-100225000D01*
X122404990Y-101525010D02*
X122730000Y-101200000D01*
X121113242Y-101525010D02*
X122404990Y-101525010D01*
X118838232Y-99250000D02*
X121113242Y-101525010D01*
X115622400Y-99250000D02*
X118838232Y-99250000D01*
X122730000Y-100225000D02*
X122730000Y-99270000D01*
X122730000Y-99270000D02*
X124500000Y-97500000D01*
X132750000Y-97500000D02*
X132750000Y-99500000D01*
%TO.N,Net-(JP103-Pad2)*%
X124000000Y-101200000D02*
X124000000Y-100225000D01*
X123224980Y-101975020D02*
X124000000Y-101200000D01*
X120926842Y-101975020D02*
X123224980Y-101975020D01*
X119001822Y-100050000D02*
X120926842Y-101975020D01*
X115622400Y-100050000D02*
X119001822Y-100050000D01*
X124000000Y-99250000D02*
X127000000Y-96250000D01*
X124000000Y-100225000D02*
X124000000Y-99250000D01*
X127000000Y-96250000D02*
X135750000Y-96250000D01*
X135750000Y-96250000D02*
X136500000Y-97000000D01*
X136500000Y-97000000D02*
X136500000Y-99500000D01*
%TD*%
D20*
%TO.N,GND*%
X112834328Y-94207830D02*
X112834328Y-94421100D01*
X112846588Y-94545582D01*
X112869496Y-94621100D01*
X112846588Y-94696618D01*
X112834328Y-94821100D01*
X112834328Y-95221100D01*
X112846588Y-95345582D01*
X112869496Y-95421100D01*
X112846588Y-95496618D01*
X112834328Y-95621100D01*
X112834328Y-96021100D01*
X112846588Y-96145582D01*
X112882898Y-96265280D01*
X112941863Y-96375594D01*
X113021215Y-96472285D01*
X113117906Y-96551637D01*
X113162400Y-96575420D01*
X113162401Y-97695680D01*
X113117906Y-97719463D01*
X113021215Y-97798815D01*
X112941863Y-97895506D01*
X112882898Y-98005820D01*
X112846588Y-98125518D01*
X112834328Y-98250000D01*
X112834328Y-98650000D01*
X112846588Y-98774482D01*
X112869496Y-98850000D01*
X112846588Y-98925518D01*
X112834328Y-99050000D01*
X112834328Y-99450000D01*
X112846588Y-99574482D01*
X112869496Y-99650000D01*
X112846588Y-99725518D01*
X112834328Y-99850000D01*
X112834328Y-100250000D01*
X112846588Y-100374482D01*
X112869496Y-100450000D01*
X112846588Y-100525518D01*
X112834328Y-100650000D01*
X112834328Y-101050000D01*
X112846588Y-101174482D01*
X112882898Y-101294180D01*
X112941863Y-101404494D01*
X113021215Y-101501185D01*
X113117906Y-101580537D01*
X113228220Y-101639502D01*
X113347918Y-101675812D01*
X113472400Y-101688072D01*
X114372400Y-101688072D01*
X114496882Y-101675812D01*
X114616580Y-101639502D01*
X114726894Y-101580537D01*
X114772400Y-101543191D01*
X114817906Y-101580537D01*
X114928220Y-101639502D01*
X115047918Y-101675812D01*
X115172400Y-101688072D01*
X116072400Y-101688072D01*
X116196882Y-101675812D01*
X116316580Y-101639502D01*
X116426894Y-101580537D01*
X116523585Y-101501185D01*
X116602937Y-101404494D01*
X116661902Y-101294180D01*
X116698212Y-101174482D01*
X116710472Y-101050000D01*
X116710472Y-100810000D01*
X118687021Y-100810000D01*
X120217019Y-102340000D01*
X108585783Y-102340000D01*
X108734979Y-102278201D01*
X109248446Y-101935114D01*
X109685114Y-101498446D01*
X110028201Y-100984979D01*
X110264524Y-100414446D01*
X110385000Y-99808771D01*
X110385000Y-99191229D01*
X110264524Y-98585554D01*
X110028201Y-98015021D01*
X109685114Y-97501554D01*
X109248446Y-97064886D01*
X108734979Y-96721799D01*
X108164446Y-96485476D01*
X107558771Y-96365000D01*
X106941229Y-96365000D01*
X106335554Y-96485476D01*
X105765021Y-96721799D01*
X105251554Y-97064886D01*
X104814886Y-97501554D01*
X104471799Y-98015021D01*
X104235476Y-98585554D01*
X104115000Y-99191229D01*
X104115000Y-99808771D01*
X104235476Y-100414446D01*
X104471799Y-100984979D01*
X104814886Y-101498446D01*
X105251554Y-101935114D01*
X105765021Y-102278201D01*
X105914217Y-102340000D01*
X102284677Y-102340000D01*
X102419205Y-102284277D01*
X102564155Y-102187424D01*
X102687424Y-102064155D01*
X102784277Y-101919205D01*
X102850990Y-101758145D01*
X102885000Y-101587165D01*
X102885000Y-101412835D01*
X102850990Y-101241855D01*
X102784277Y-101080795D01*
X102687424Y-100935845D01*
X102564155Y-100812576D01*
X102419205Y-100715723D01*
X102258145Y-100649010D01*
X102087165Y-100615000D01*
X101912835Y-100615000D01*
X101741855Y-100649010D01*
X101580795Y-100715723D01*
X101435845Y-100812576D01*
X101312576Y-100935845D01*
X101215723Y-101080795D01*
X101149010Y-101241855D01*
X101115000Y-101412835D01*
X101115000Y-101587165D01*
X101149010Y-101758145D01*
X101215723Y-101919205D01*
X101312576Y-102064155D01*
X101435845Y-102187424D01*
X101580795Y-102284277D01*
X101715323Y-102340000D01*
X100660000Y-102340000D01*
X100660000Y-98243402D01*
X100728359Y-98386920D01*
X100902412Y-98620269D01*
X101118645Y-98815178D01*
X101368748Y-98964157D01*
X101643109Y-99061481D01*
X101873000Y-98940814D01*
X101873000Y-97747000D01*
X102127000Y-97747000D01*
X102127000Y-98940814D01*
X102356891Y-99061481D01*
X102631252Y-98964157D01*
X102881355Y-98815178D01*
X103097588Y-98620269D01*
X103271641Y-98386920D01*
X103396825Y-98124099D01*
X103441476Y-97976890D01*
X103320155Y-97747000D01*
X102127000Y-97747000D01*
X101873000Y-97747000D01*
X101853000Y-97747000D01*
X101853000Y-97493000D01*
X101873000Y-97493000D01*
X101873000Y-97473000D01*
X102127000Y-97473000D01*
X102127000Y-97493000D01*
X103320155Y-97493000D01*
X103441476Y-97263110D01*
X103396825Y-97115901D01*
X103271641Y-96853080D01*
X103097588Y-96619731D01*
X102881355Y-96424822D01*
X102764466Y-96355195D01*
X102946632Y-96233475D01*
X103153475Y-96026632D01*
X103315990Y-95783411D01*
X103427932Y-95513158D01*
X103485000Y-95226260D01*
X103485000Y-94933740D01*
X103441210Y-94713592D01*
X105119804Y-93034999D01*
X111661498Y-93034999D01*
X112834328Y-94207830D01*
%TA.AperFunction,Conductor*%
D21*
G36*
X112834328Y-94207830D02*
G01*
X112834328Y-94421100D01*
X112846588Y-94545582D01*
X112869496Y-94621100D01*
X112846588Y-94696618D01*
X112834328Y-94821100D01*
X112834328Y-95221100D01*
X112846588Y-95345582D01*
X112869496Y-95421100D01*
X112846588Y-95496618D01*
X112834328Y-95621100D01*
X112834328Y-96021100D01*
X112846588Y-96145582D01*
X112882898Y-96265280D01*
X112941863Y-96375594D01*
X113021215Y-96472285D01*
X113117906Y-96551637D01*
X113162400Y-96575420D01*
X113162401Y-97695680D01*
X113117906Y-97719463D01*
X113021215Y-97798815D01*
X112941863Y-97895506D01*
X112882898Y-98005820D01*
X112846588Y-98125518D01*
X112834328Y-98250000D01*
X112834328Y-98650000D01*
X112846588Y-98774482D01*
X112869496Y-98850000D01*
X112846588Y-98925518D01*
X112834328Y-99050000D01*
X112834328Y-99450000D01*
X112846588Y-99574482D01*
X112869496Y-99650000D01*
X112846588Y-99725518D01*
X112834328Y-99850000D01*
X112834328Y-100250000D01*
X112846588Y-100374482D01*
X112869496Y-100450000D01*
X112846588Y-100525518D01*
X112834328Y-100650000D01*
X112834328Y-101050000D01*
X112846588Y-101174482D01*
X112882898Y-101294180D01*
X112941863Y-101404494D01*
X113021215Y-101501185D01*
X113117906Y-101580537D01*
X113228220Y-101639502D01*
X113347918Y-101675812D01*
X113472400Y-101688072D01*
X114372400Y-101688072D01*
X114496882Y-101675812D01*
X114616580Y-101639502D01*
X114726894Y-101580537D01*
X114772400Y-101543191D01*
X114817906Y-101580537D01*
X114928220Y-101639502D01*
X115047918Y-101675812D01*
X115172400Y-101688072D01*
X116072400Y-101688072D01*
X116196882Y-101675812D01*
X116316580Y-101639502D01*
X116426894Y-101580537D01*
X116523585Y-101501185D01*
X116602937Y-101404494D01*
X116661902Y-101294180D01*
X116698212Y-101174482D01*
X116710472Y-101050000D01*
X116710472Y-100810000D01*
X118687021Y-100810000D01*
X120217019Y-102340000D01*
X108585783Y-102340000D01*
X108734979Y-102278201D01*
X109248446Y-101935114D01*
X109685114Y-101498446D01*
X110028201Y-100984979D01*
X110264524Y-100414446D01*
X110385000Y-99808771D01*
X110385000Y-99191229D01*
X110264524Y-98585554D01*
X110028201Y-98015021D01*
X109685114Y-97501554D01*
X109248446Y-97064886D01*
X108734979Y-96721799D01*
X108164446Y-96485476D01*
X107558771Y-96365000D01*
X106941229Y-96365000D01*
X106335554Y-96485476D01*
X105765021Y-96721799D01*
X105251554Y-97064886D01*
X104814886Y-97501554D01*
X104471799Y-98015021D01*
X104235476Y-98585554D01*
X104115000Y-99191229D01*
X104115000Y-99808771D01*
X104235476Y-100414446D01*
X104471799Y-100984979D01*
X104814886Y-101498446D01*
X105251554Y-101935114D01*
X105765021Y-102278201D01*
X105914217Y-102340000D01*
X102284677Y-102340000D01*
X102419205Y-102284277D01*
X102564155Y-102187424D01*
X102687424Y-102064155D01*
X102784277Y-101919205D01*
X102850990Y-101758145D01*
X102885000Y-101587165D01*
X102885000Y-101412835D01*
X102850990Y-101241855D01*
X102784277Y-101080795D01*
X102687424Y-100935845D01*
X102564155Y-100812576D01*
X102419205Y-100715723D01*
X102258145Y-100649010D01*
X102087165Y-100615000D01*
X101912835Y-100615000D01*
X101741855Y-100649010D01*
X101580795Y-100715723D01*
X101435845Y-100812576D01*
X101312576Y-100935845D01*
X101215723Y-101080795D01*
X101149010Y-101241855D01*
X101115000Y-101412835D01*
X101115000Y-101587165D01*
X101149010Y-101758145D01*
X101215723Y-101919205D01*
X101312576Y-102064155D01*
X101435845Y-102187424D01*
X101580795Y-102284277D01*
X101715323Y-102340000D01*
X100660000Y-102340000D01*
X100660000Y-98243402D01*
X100728359Y-98386920D01*
X100902412Y-98620269D01*
X101118645Y-98815178D01*
X101368748Y-98964157D01*
X101643109Y-99061481D01*
X101873000Y-98940814D01*
X101873000Y-97747000D01*
X102127000Y-97747000D01*
X102127000Y-98940814D01*
X102356891Y-99061481D01*
X102631252Y-98964157D01*
X102881355Y-98815178D01*
X103097588Y-98620269D01*
X103271641Y-98386920D01*
X103396825Y-98124099D01*
X103441476Y-97976890D01*
X103320155Y-97747000D01*
X102127000Y-97747000D01*
X101873000Y-97747000D01*
X101853000Y-97747000D01*
X101853000Y-97493000D01*
X101873000Y-97493000D01*
X101873000Y-97473000D01*
X102127000Y-97473000D01*
X102127000Y-97493000D01*
X103320155Y-97493000D01*
X103441476Y-97263110D01*
X103396825Y-97115901D01*
X103271641Y-96853080D01*
X103097588Y-96619731D01*
X102881355Y-96424822D01*
X102764466Y-96355195D01*
X102946632Y-96233475D01*
X103153475Y-96026632D01*
X103315990Y-95783411D01*
X103427932Y-95513158D01*
X103485000Y-95226260D01*
X103485000Y-94933740D01*
X103441210Y-94713592D01*
X105119804Y-93034999D01*
X111661498Y-93034999D01*
X112834328Y-94207830D01*
G37*
%TD.AperFunction*%
D20*
X131363910Y-94172189D02*
X131365026Y-94174276D01*
X131410959Y-94230245D01*
X131433049Y-94257504D01*
X131434707Y-94259183D01*
X131459999Y-94290001D01*
X131487180Y-94312308D01*
X131511890Y-94337325D01*
X131544905Y-94359681D01*
X131575724Y-94384974D01*
X131606732Y-94401548D01*
X131635850Y-94421266D01*
X131672589Y-94436750D01*
X131707753Y-94455546D01*
X131741409Y-94465755D01*
X131773805Y-94479409D01*
X131812854Y-94487427D01*
X131851014Y-94499003D01*
X131886013Y-94502450D01*
X131920452Y-94509522D01*
X131960315Y-94509768D01*
X131962667Y-94510000D01*
X131997813Y-94510000D01*
X132070156Y-94510447D01*
X132072478Y-94510000D01*
X138977300Y-94510000D01*
X139029348Y-94513113D01*
X139089032Y-94504908D01*
X139138079Y-94500077D01*
X139235534Y-94565195D01*
X139118645Y-94634822D01*
X138902412Y-94829731D01*
X138728359Y-95063080D01*
X138603175Y-95325901D01*
X138558524Y-95473110D01*
X138679845Y-95703000D01*
X139873000Y-95703000D01*
X139873000Y-95683000D01*
X140127000Y-95683000D01*
X140127000Y-95703000D01*
X140147000Y-95703000D01*
X140147000Y-95957000D01*
X140127000Y-95957000D01*
X140127000Y-97150814D01*
X140356891Y-97271481D01*
X140631252Y-97174157D01*
X140881355Y-97025178D01*
X141097588Y-96830269D01*
X141271641Y-96596920D01*
X141340001Y-96453400D01*
X141340001Y-102340000D01*
X123934801Y-102340000D01*
X124511004Y-101763798D01*
X124540001Y-101740001D01*
X124553420Y-101723650D01*
X124585936Y-101706270D01*
X124615506Y-101730537D01*
X124725820Y-101789502D01*
X124845518Y-101825812D01*
X124970000Y-101838072D01*
X124984250Y-101835000D01*
X125143000Y-101676250D01*
X125143000Y-100352000D01*
X125397000Y-100352000D01*
X125397000Y-101676250D01*
X125555750Y-101835000D01*
X125570000Y-101838072D01*
X125694482Y-101825812D01*
X125814180Y-101789502D01*
X125924494Y-101730537D01*
X126021185Y-101651185D01*
X126100537Y-101554494D01*
X126159502Y-101444180D01*
X126195812Y-101324482D01*
X126198223Y-101300000D01*
X127611928Y-101300000D01*
X127624188Y-101424482D01*
X127660498Y-101544180D01*
X127719463Y-101654494D01*
X127798815Y-101751185D01*
X127895506Y-101830537D01*
X128005820Y-101889502D01*
X128125518Y-101925812D01*
X128250000Y-101938072D01*
X128714250Y-101935000D01*
X128873000Y-101776250D01*
X128873000Y-100927000D01*
X129127000Y-100927000D01*
X129127000Y-101776250D01*
X129285750Y-101935000D01*
X129750000Y-101938072D01*
X129874482Y-101925812D01*
X129994180Y-101889502D01*
X130104494Y-101830537D01*
X130201185Y-101751185D01*
X130280537Y-101654494D01*
X130339502Y-101544180D01*
X130375812Y-101424482D01*
X130388072Y-101300000D01*
X131361928Y-101300000D01*
X131374188Y-101424482D01*
X131410498Y-101544180D01*
X131469463Y-101654494D01*
X131548815Y-101751185D01*
X131645506Y-101830537D01*
X131755820Y-101889502D01*
X131875518Y-101925812D01*
X132000000Y-101938072D01*
X132464250Y-101935000D01*
X132623000Y-101776250D01*
X132623000Y-100927000D01*
X132877000Y-100927000D01*
X132877000Y-101776250D01*
X133035750Y-101935000D01*
X133500000Y-101938072D01*
X133624482Y-101925812D01*
X133744180Y-101889502D01*
X133854494Y-101830537D01*
X133951185Y-101751185D01*
X134030537Y-101654494D01*
X134089502Y-101544180D01*
X134125812Y-101424482D01*
X134138072Y-101300000D01*
X135111928Y-101300000D01*
X135124188Y-101424482D01*
X135160498Y-101544180D01*
X135219463Y-101654494D01*
X135298815Y-101751185D01*
X135395506Y-101830537D01*
X135505820Y-101889502D01*
X135625518Y-101925812D01*
X135750000Y-101938072D01*
X136214250Y-101935000D01*
X136373000Y-101776250D01*
X136373000Y-100927000D01*
X136627000Y-100927000D01*
X136627000Y-101776250D01*
X136785750Y-101935000D01*
X137250000Y-101938072D01*
X137374482Y-101925812D01*
X137494180Y-101889502D01*
X137604494Y-101830537D01*
X137701185Y-101751185D01*
X137780537Y-101654494D01*
X137839502Y-101544180D01*
X137875812Y-101424482D01*
X137888072Y-101300000D01*
X137885000Y-101085750D01*
X137726250Y-100927000D01*
X136627000Y-100927000D01*
X136373000Y-100927000D01*
X135273750Y-100927000D01*
X135115000Y-101085750D01*
X135111928Y-101300000D01*
X134138072Y-101300000D01*
X134135000Y-101085750D01*
X133976250Y-100927000D01*
X132877000Y-100927000D01*
X132623000Y-100927000D01*
X131523750Y-100927000D01*
X131365000Y-101085750D01*
X131361928Y-101300000D01*
X130388072Y-101300000D01*
X130385000Y-101085750D01*
X130226250Y-100927000D01*
X129127000Y-100927000D01*
X128873000Y-100927000D01*
X127773750Y-100927000D01*
X127615000Y-101085750D01*
X127611928Y-101300000D01*
X126198223Y-101300000D01*
X126208072Y-101200000D01*
X126205000Y-100510750D01*
X126046250Y-100352000D01*
X125397000Y-100352000D01*
X125143000Y-100352000D01*
X125123000Y-100352000D01*
X125123000Y-100098000D01*
X125143000Y-100098000D01*
X125143000Y-100078000D01*
X125397000Y-100078000D01*
X125397000Y-100098000D01*
X126046250Y-100098000D01*
X126205000Y-99939250D01*
X126208072Y-99250000D01*
X126195812Y-99125518D01*
X126159502Y-99005820D01*
X126156392Y-99000000D01*
X127611928Y-99000000D01*
X127611928Y-100000000D01*
X127624188Y-100124482D01*
X127631929Y-100150000D01*
X127624188Y-100175518D01*
X127611928Y-100300000D01*
X127615000Y-100514250D01*
X127773750Y-100673000D01*
X128873000Y-100673000D01*
X128873000Y-100653000D01*
X129127000Y-100653000D01*
X129127000Y-100673000D01*
X130226250Y-100673000D01*
X130385000Y-100514250D01*
X130388072Y-100300000D01*
X130375812Y-100175518D01*
X130368071Y-100150000D01*
X130375812Y-100124482D01*
X130388072Y-100000000D01*
X130388072Y-99000000D01*
X130375812Y-98875518D01*
X130339502Y-98755820D01*
X130280537Y-98645506D01*
X130201185Y-98548815D01*
X130104494Y-98469463D01*
X130020548Y-98424592D01*
X130035000Y-98351939D01*
X130035000Y-98148061D01*
X129995226Y-97948102D01*
X129917205Y-97759744D01*
X129803937Y-97590226D01*
X129659774Y-97446063D01*
X129490256Y-97332795D01*
X129301898Y-97254774D01*
X129101939Y-97215000D01*
X128898061Y-97215000D01*
X128698102Y-97254774D01*
X128509744Y-97332795D01*
X128340226Y-97446063D01*
X128196063Y-97590226D01*
X128082795Y-97759744D01*
X128004774Y-97948102D01*
X127965000Y-98148061D01*
X127965000Y-98351939D01*
X127979452Y-98424592D01*
X127895506Y-98469463D01*
X127798815Y-98548815D01*
X127719463Y-98645506D01*
X127660498Y-98755820D01*
X127624188Y-98875518D01*
X127611928Y-99000000D01*
X126156392Y-99000000D01*
X126100537Y-98895506D01*
X126021185Y-98798815D01*
X125924494Y-98719463D01*
X125814180Y-98660498D01*
X125699186Y-98625615D01*
X127314802Y-97010000D01*
X131832689Y-97010000D01*
X131754774Y-97198102D01*
X131715000Y-97398061D01*
X131715000Y-97601939D01*
X131754774Y-97801898D01*
X131832795Y-97990256D01*
X131946063Y-98159774D01*
X131990000Y-98203711D01*
X131990000Y-98362913D01*
X131875518Y-98374188D01*
X131755820Y-98410498D01*
X131645506Y-98469463D01*
X131548815Y-98548815D01*
X131469463Y-98645506D01*
X131410498Y-98755820D01*
X131374188Y-98875518D01*
X131361928Y-99000000D01*
X131361928Y-100000000D01*
X131374188Y-100124482D01*
X131381929Y-100150000D01*
X131374188Y-100175518D01*
X131361928Y-100300000D01*
X131365000Y-100514250D01*
X131523750Y-100673000D01*
X132623000Y-100673000D01*
X132623000Y-100653000D01*
X132877000Y-100653000D01*
X132877000Y-100673000D01*
X133976250Y-100673000D01*
X134135000Y-100514250D01*
X134138072Y-100300000D01*
X134125812Y-100175518D01*
X134118071Y-100150000D01*
X134125812Y-100124482D01*
X134138072Y-100000000D01*
X134138072Y-99000000D01*
X134125812Y-98875518D01*
X134089502Y-98755820D01*
X134030537Y-98645506D01*
X133951185Y-98548815D01*
X133854494Y-98469463D01*
X133744180Y-98410498D01*
X133624482Y-98374188D01*
X133510000Y-98362913D01*
X133510000Y-98203711D01*
X133553937Y-98159774D01*
X133667205Y-97990256D01*
X133745226Y-97801898D01*
X133785000Y-97601939D01*
X133785000Y-97398061D01*
X133745226Y-97198102D01*
X133667311Y-97010000D01*
X135435199Y-97010000D01*
X135740000Y-97314802D01*
X135740001Y-98362913D01*
X135625518Y-98374188D01*
X135505820Y-98410498D01*
X135395506Y-98469463D01*
X135298815Y-98548815D01*
X135219463Y-98645506D01*
X135160498Y-98755820D01*
X135124188Y-98875518D01*
X135111928Y-99000000D01*
X135111928Y-100000000D01*
X135124188Y-100124482D01*
X135131929Y-100150000D01*
X135124188Y-100175518D01*
X135111928Y-100300000D01*
X135115000Y-100514250D01*
X135273750Y-100673000D01*
X136373000Y-100673000D01*
X136373000Y-100653000D01*
X136627000Y-100653000D01*
X136627000Y-100673000D01*
X137726250Y-100673000D01*
X137885000Y-100514250D01*
X137888072Y-100300000D01*
X137875812Y-100175518D01*
X137868071Y-100150000D01*
X137875812Y-100124482D01*
X137888072Y-100000000D01*
X137888072Y-99000000D01*
X137875812Y-98875518D01*
X137839502Y-98755820D01*
X137780537Y-98645506D01*
X137701185Y-98548815D01*
X137604494Y-98469463D01*
X137494180Y-98410498D01*
X137374482Y-98374188D01*
X137260000Y-98362913D01*
X137260000Y-97037322D01*
X137263676Y-96999999D01*
X137260000Y-96962676D01*
X137260000Y-96962667D01*
X137249003Y-96851014D01*
X137205546Y-96707753D01*
X137134974Y-96575724D01*
X137040001Y-96459999D01*
X137011004Y-96436202D01*
X136761692Y-96186890D01*
X138558524Y-96186890D01*
X138603175Y-96334099D01*
X138728359Y-96596920D01*
X138902412Y-96830269D01*
X139118645Y-97025178D01*
X139368748Y-97174157D01*
X139643109Y-97271481D01*
X139873000Y-97150814D01*
X139873000Y-95957000D01*
X138679845Y-95957000D01*
X138558524Y-96186890D01*
X136761692Y-96186890D01*
X136313803Y-95739002D01*
X136290001Y-95709999D01*
X136174276Y-95615026D01*
X136042247Y-95544454D01*
X135898986Y-95500997D01*
X135787333Y-95490000D01*
X135787322Y-95490000D01*
X135750000Y-95486324D01*
X135712678Y-95490000D01*
X127507538Y-95490000D01*
X127535000Y-95351939D01*
X127535000Y-95289801D01*
X129456009Y-93368794D01*
X129485001Y-93345001D01*
X129508795Y-93316008D01*
X129508799Y-93316004D01*
X129579973Y-93229277D01*
X129579974Y-93229276D01*
X129650546Y-93097247D01*
X129694003Y-92953986D01*
X129705000Y-92842333D01*
X129705000Y-92842324D01*
X129708676Y-92805001D01*
X129705000Y-92767678D01*
X129705000Y-92417976D01*
X129750258Y-92362829D01*
X129808826Y-92253257D01*
X131363910Y-94172189D01*
%TA.AperFunction,Conductor*%
D21*
G36*
X131363910Y-94172189D02*
G01*
X131365026Y-94174276D01*
X131410959Y-94230245D01*
X131433049Y-94257504D01*
X131434707Y-94259183D01*
X131459999Y-94290001D01*
X131487180Y-94312308D01*
X131511890Y-94337325D01*
X131544905Y-94359681D01*
X131575724Y-94384974D01*
X131606732Y-94401548D01*
X131635850Y-94421266D01*
X131672589Y-94436750D01*
X131707753Y-94455546D01*
X131741409Y-94465755D01*
X131773805Y-94479409D01*
X131812854Y-94487427D01*
X131851014Y-94499003D01*
X131886013Y-94502450D01*
X131920452Y-94509522D01*
X131960315Y-94509768D01*
X131962667Y-94510000D01*
X131997813Y-94510000D01*
X132070156Y-94510447D01*
X132072478Y-94510000D01*
X138977300Y-94510000D01*
X139029348Y-94513113D01*
X139089032Y-94504908D01*
X139138079Y-94500077D01*
X139235534Y-94565195D01*
X139118645Y-94634822D01*
X138902412Y-94829731D01*
X138728359Y-95063080D01*
X138603175Y-95325901D01*
X138558524Y-95473110D01*
X138679845Y-95703000D01*
X139873000Y-95703000D01*
X139873000Y-95683000D01*
X140127000Y-95683000D01*
X140127000Y-95703000D01*
X140147000Y-95703000D01*
X140147000Y-95957000D01*
X140127000Y-95957000D01*
X140127000Y-97150814D01*
X140356891Y-97271481D01*
X140631252Y-97174157D01*
X140881355Y-97025178D01*
X141097588Y-96830269D01*
X141271641Y-96596920D01*
X141340001Y-96453400D01*
X141340001Y-102340000D01*
X123934801Y-102340000D01*
X124511004Y-101763798D01*
X124540001Y-101740001D01*
X124553420Y-101723650D01*
X124585936Y-101706270D01*
X124615506Y-101730537D01*
X124725820Y-101789502D01*
X124845518Y-101825812D01*
X124970000Y-101838072D01*
X124984250Y-101835000D01*
X125143000Y-101676250D01*
X125143000Y-100352000D01*
X125397000Y-100352000D01*
X125397000Y-101676250D01*
X125555750Y-101835000D01*
X125570000Y-101838072D01*
X125694482Y-101825812D01*
X125814180Y-101789502D01*
X125924494Y-101730537D01*
X126021185Y-101651185D01*
X126100537Y-101554494D01*
X126159502Y-101444180D01*
X126195812Y-101324482D01*
X126198223Y-101300000D01*
X127611928Y-101300000D01*
X127624188Y-101424482D01*
X127660498Y-101544180D01*
X127719463Y-101654494D01*
X127798815Y-101751185D01*
X127895506Y-101830537D01*
X128005820Y-101889502D01*
X128125518Y-101925812D01*
X128250000Y-101938072D01*
X128714250Y-101935000D01*
X128873000Y-101776250D01*
X128873000Y-100927000D01*
X129127000Y-100927000D01*
X129127000Y-101776250D01*
X129285750Y-101935000D01*
X129750000Y-101938072D01*
X129874482Y-101925812D01*
X129994180Y-101889502D01*
X130104494Y-101830537D01*
X130201185Y-101751185D01*
X130280537Y-101654494D01*
X130339502Y-101544180D01*
X130375812Y-101424482D01*
X130388072Y-101300000D01*
X131361928Y-101300000D01*
X131374188Y-101424482D01*
X131410498Y-101544180D01*
X131469463Y-101654494D01*
X131548815Y-101751185D01*
X131645506Y-101830537D01*
X131755820Y-101889502D01*
X131875518Y-101925812D01*
X132000000Y-101938072D01*
X132464250Y-101935000D01*
X132623000Y-101776250D01*
X132623000Y-100927000D01*
X132877000Y-100927000D01*
X132877000Y-101776250D01*
X133035750Y-101935000D01*
X133500000Y-101938072D01*
X133624482Y-101925812D01*
X133744180Y-101889502D01*
X133854494Y-101830537D01*
X133951185Y-101751185D01*
X134030537Y-101654494D01*
X134089502Y-101544180D01*
X134125812Y-101424482D01*
X134138072Y-101300000D01*
X135111928Y-101300000D01*
X135124188Y-101424482D01*
X135160498Y-101544180D01*
X135219463Y-101654494D01*
X135298815Y-101751185D01*
X135395506Y-101830537D01*
X135505820Y-101889502D01*
X135625518Y-101925812D01*
X135750000Y-101938072D01*
X136214250Y-101935000D01*
X136373000Y-101776250D01*
X136373000Y-100927000D01*
X136627000Y-100927000D01*
X136627000Y-101776250D01*
X136785750Y-101935000D01*
X137250000Y-101938072D01*
X137374482Y-101925812D01*
X137494180Y-101889502D01*
X137604494Y-101830537D01*
X137701185Y-101751185D01*
X137780537Y-101654494D01*
X137839502Y-101544180D01*
X137875812Y-101424482D01*
X137888072Y-101300000D01*
X137885000Y-101085750D01*
X137726250Y-100927000D01*
X136627000Y-100927000D01*
X136373000Y-100927000D01*
X135273750Y-100927000D01*
X135115000Y-101085750D01*
X135111928Y-101300000D01*
X134138072Y-101300000D01*
X134135000Y-101085750D01*
X133976250Y-100927000D01*
X132877000Y-100927000D01*
X132623000Y-100927000D01*
X131523750Y-100927000D01*
X131365000Y-101085750D01*
X131361928Y-101300000D01*
X130388072Y-101300000D01*
X130385000Y-101085750D01*
X130226250Y-100927000D01*
X129127000Y-100927000D01*
X128873000Y-100927000D01*
X127773750Y-100927000D01*
X127615000Y-101085750D01*
X127611928Y-101300000D01*
X126198223Y-101300000D01*
X126208072Y-101200000D01*
X126205000Y-100510750D01*
X126046250Y-100352000D01*
X125397000Y-100352000D01*
X125143000Y-100352000D01*
X125123000Y-100352000D01*
X125123000Y-100098000D01*
X125143000Y-100098000D01*
X125143000Y-100078000D01*
X125397000Y-100078000D01*
X125397000Y-100098000D01*
X126046250Y-100098000D01*
X126205000Y-99939250D01*
X126208072Y-99250000D01*
X126195812Y-99125518D01*
X126159502Y-99005820D01*
X126156392Y-99000000D01*
X127611928Y-99000000D01*
X127611928Y-100000000D01*
X127624188Y-100124482D01*
X127631929Y-100150000D01*
X127624188Y-100175518D01*
X127611928Y-100300000D01*
X127615000Y-100514250D01*
X127773750Y-100673000D01*
X128873000Y-100673000D01*
X128873000Y-100653000D01*
X129127000Y-100653000D01*
X129127000Y-100673000D01*
X130226250Y-100673000D01*
X130385000Y-100514250D01*
X130388072Y-100300000D01*
X130375812Y-100175518D01*
X130368071Y-100150000D01*
X130375812Y-100124482D01*
X130388072Y-100000000D01*
X130388072Y-99000000D01*
X130375812Y-98875518D01*
X130339502Y-98755820D01*
X130280537Y-98645506D01*
X130201185Y-98548815D01*
X130104494Y-98469463D01*
X130020548Y-98424592D01*
X130035000Y-98351939D01*
X130035000Y-98148061D01*
X129995226Y-97948102D01*
X129917205Y-97759744D01*
X129803937Y-97590226D01*
X129659774Y-97446063D01*
X129490256Y-97332795D01*
X129301898Y-97254774D01*
X129101939Y-97215000D01*
X128898061Y-97215000D01*
X128698102Y-97254774D01*
X128509744Y-97332795D01*
X128340226Y-97446063D01*
X128196063Y-97590226D01*
X128082795Y-97759744D01*
X128004774Y-97948102D01*
X127965000Y-98148061D01*
X127965000Y-98351939D01*
X127979452Y-98424592D01*
X127895506Y-98469463D01*
X127798815Y-98548815D01*
X127719463Y-98645506D01*
X127660498Y-98755820D01*
X127624188Y-98875518D01*
X127611928Y-99000000D01*
X126156392Y-99000000D01*
X126100537Y-98895506D01*
X126021185Y-98798815D01*
X125924494Y-98719463D01*
X125814180Y-98660498D01*
X125699186Y-98625615D01*
X127314802Y-97010000D01*
X131832689Y-97010000D01*
X131754774Y-97198102D01*
X131715000Y-97398061D01*
X131715000Y-97601939D01*
X131754774Y-97801898D01*
X131832795Y-97990256D01*
X131946063Y-98159774D01*
X131990000Y-98203711D01*
X131990000Y-98362913D01*
X131875518Y-98374188D01*
X131755820Y-98410498D01*
X131645506Y-98469463D01*
X131548815Y-98548815D01*
X131469463Y-98645506D01*
X131410498Y-98755820D01*
X131374188Y-98875518D01*
X131361928Y-99000000D01*
X131361928Y-100000000D01*
X131374188Y-100124482D01*
X131381929Y-100150000D01*
X131374188Y-100175518D01*
X131361928Y-100300000D01*
X131365000Y-100514250D01*
X131523750Y-100673000D01*
X132623000Y-100673000D01*
X132623000Y-100653000D01*
X132877000Y-100653000D01*
X132877000Y-100673000D01*
X133976250Y-100673000D01*
X134135000Y-100514250D01*
X134138072Y-100300000D01*
X134125812Y-100175518D01*
X134118071Y-100150000D01*
X134125812Y-100124482D01*
X134138072Y-100000000D01*
X134138072Y-99000000D01*
X134125812Y-98875518D01*
X134089502Y-98755820D01*
X134030537Y-98645506D01*
X133951185Y-98548815D01*
X133854494Y-98469463D01*
X133744180Y-98410498D01*
X133624482Y-98374188D01*
X133510000Y-98362913D01*
X133510000Y-98203711D01*
X133553937Y-98159774D01*
X133667205Y-97990256D01*
X133745226Y-97801898D01*
X133785000Y-97601939D01*
X133785000Y-97398061D01*
X133745226Y-97198102D01*
X133667311Y-97010000D01*
X135435199Y-97010000D01*
X135740000Y-97314802D01*
X135740001Y-98362913D01*
X135625518Y-98374188D01*
X135505820Y-98410498D01*
X135395506Y-98469463D01*
X135298815Y-98548815D01*
X135219463Y-98645506D01*
X135160498Y-98755820D01*
X135124188Y-98875518D01*
X135111928Y-99000000D01*
X135111928Y-100000000D01*
X135124188Y-100124482D01*
X135131929Y-100150000D01*
X135124188Y-100175518D01*
X135111928Y-100300000D01*
X135115000Y-100514250D01*
X135273750Y-100673000D01*
X136373000Y-100673000D01*
X136373000Y-100653000D01*
X136627000Y-100653000D01*
X136627000Y-100673000D01*
X137726250Y-100673000D01*
X137885000Y-100514250D01*
X137888072Y-100300000D01*
X137875812Y-100175518D01*
X137868071Y-100150000D01*
X137875812Y-100124482D01*
X137888072Y-100000000D01*
X137888072Y-99000000D01*
X137875812Y-98875518D01*
X137839502Y-98755820D01*
X137780537Y-98645506D01*
X137701185Y-98548815D01*
X137604494Y-98469463D01*
X137494180Y-98410498D01*
X137374482Y-98374188D01*
X137260000Y-98362913D01*
X137260000Y-97037322D01*
X137263676Y-96999999D01*
X137260000Y-96962676D01*
X137260000Y-96962667D01*
X137249003Y-96851014D01*
X137205546Y-96707753D01*
X137134974Y-96575724D01*
X137040001Y-96459999D01*
X137011004Y-96436202D01*
X136761692Y-96186890D01*
X138558524Y-96186890D01*
X138603175Y-96334099D01*
X138728359Y-96596920D01*
X138902412Y-96830269D01*
X139118645Y-97025178D01*
X139368748Y-97174157D01*
X139643109Y-97271481D01*
X139873000Y-97150814D01*
X139873000Y-95957000D01*
X138679845Y-95957000D01*
X138558524Y-96186890D01*
X136761692Y-96186890D01*
X136313803Y-95739002D01*
X136290001Y-95709999D01*
X136174276Y-95615026D01*
X136042247Y-95544454D01*
X135898986Y-95500997D01*
X135787333Y-95490000D01*
X135787322Y-95490000D01*
X135750000Y-95486324D01*
X135712678Y-95490000D01*
X127507538Y-95490000D01*
X127535000Y-95351939D01*
X127535000Y-95289801D01*
X129456009Y-93368794D01*
X129485001Y-93345001D01*
X129508795Y-93316008D01*
X129508799Y-93316004D01*
X129579973Y-93229277D01*
X129579974Y-93229276D01*
X129650546Y-93097247D01*
X129694003Y-92953986D01*
X129705000Y-92842333D01*
X129705000Y-92842324D01*
X129708676Y-92805001D01*
X129705000Y-92767678D01*
X129705000Y-92417976D01*
X129750258Y-92362829D01*
X129808826Y-92253257D01*
X131363910Y-94172189D01*
G37*
%TD.AperFunction*%
D20*
X101580795Y-79215723D02*
X101435845Y-79312576D01*
X101312576Y-79435845D01*
X101215723Y-79580795D01*
X101149010Y-79741855D01*
X101115000Y-79912835D01*
X101115000Y-80087165D01*
X101149010Y-80258145D01*
X101215723Y-80419205D01*
X101312576Y-80564155D01*
X101435845Y-80687424D01*
X101580795Y-80784277D01*
X101741855Y-80850990D01*
X101912835Y-80885000D01*
X102087165Y-80885000D01*
X102258145Y-80850990D01*
X102419205Y-80784277D01*
X102564155Y-80687424D01*
X102687424Y-80564155D01*
X102784277Y-80419205D01*
X102850990Y-80258145D01*
X102885000Y-80087165D01*
X102885000Y-79912835D01*
X102850990Y-79741855D01*
X102784277Y-79580795D01*
X102687424Y-79435845D01*
X102564155Y-79312576D01*
X102419205Y-79215723D01*
X102284677Y-79160000D01*
X105914217Y-79160000D01*
X105765021Y-79221799D01*
X105251554Y-79564886D01*
X104814886Y-80001554D01*
X104471799Y-80515021D01*
X104235476Y-81085554D01*
X104115000Y-81691229D01*
X104115000Y-82308771D01*
X104235476Y-82914446D01*
X104471799Y-83484979D01*
X104814886Y-83998446D01*
X105251554Y-84435114D01*
X105765021Y-84778201D01*
X106335554Y-85014524D01*
X106941229Y-85135000D01*
X107558771Y-85135000D01*
X108164446Y-85014524D01*
X108734979Y-84778201D01*
X109248446Y-84435114D01*
X109685114Y-83998446D01*
X110028201Y-83484979D01*
X110264524Y-82914446D01*
X110385000Y-82308771D01*
X110385000Y-81691229D01*
X110264524Y-81085554D01*
X110028201Y-80515021D01*
X109917938Y-80350000D01*
X112529328Y-80350000D01*
X112532400Y-80714250D01*
X112691150Y-80873000D01*
X113702900Y-80873000D01*
X113702900Y-79873750D01*
X113544150Y-79715000D01*
X113167400Y-79711928D01*
X113042918Y-79724188D01*
X112923220Y-79760498D01*
X112812906Y-79819463D01*
X112716215Y-79898815D01*
X112636863Y-79995506D01*
X112577898Y-80105820D01*
X112541588Y-80225518D01*
X112529328Y-80350000D01*
X109917938Y-80350000D01*
X109685114Y-80001554D01*
X109248446Y-79564886D01*
X108734979Y-79221799D01*
X108585783Y-79160000D01*
X128394198Y-79160000D01*
X128340226Y-79196063D01*
X128196063Y-79340226D01*
X128082795Y-79509744D01*
X128004774Y-79698102D01*
X127965000Y-79898061D01*
X127965000Y-80100717D01*
X127825000Y-80086928D01*
X127525000Y-80086928D01*
X127371255Y-80102071D01*
X127223418Y-80146916D01*
X127087171Y-80219742D01*
X127040000Y-80258454D01*
X126992829Y-80219742D01*
X126856582Y-80146916D01*
X126708745Y-80102071D01*
X126555000Y-80086928D01*
X126255000Y-80086928D01*
X126101255Y-80102071D01*
X125953418Y-80146916D01*
X125817171Y-80219742D01*
X125770000Y-80258454D01*
X125722829Y-80219742D01*
X125586582Y-80146916D01*
X125438745Y-80102071D01*
X125285000Y-80086928D01*
X124985000Y-80086928D01*
X124831255Y-80102071D01*
X124683418Y-80146916D01*
X124549064Y-80218730D01*
X124519494Y-80194463D01*
X124409180Y-80135498D01*
X124289482Y-80099188D01*
X124165000Y-80086928D01*
X124150750Y-80090000D01*
X123992000Y-80248750D01*
X123992000Y-81623000D01*
X124012000Y-81623000D01*
X124012000Y-81877000D01*
X123992000Y-81877000D01*
X123992000Y-83251250D01*
X124150750Y-83410000D01*
X124165000Y-83413072D01*
X124289482Y-83400812D01*
X124409180Y-83364502D01*
X124519494Y-83305537D01*
X124549064Y-83281270D01*
X124683418Y-83353084D01*
X124831255Y-83397929D01*
X124985000Y-83413072D01*
X125285000Y-83413072D01*
X125438745Y-83397929D01*
X125586582Y-83353084D01*
X125722829Y-83280258D01*
X125740000Y-83266166D01*
X125740000Y-83296289D01*
X125696063Y-83340226D01*
X125582795Y-83509744D01*
X125504774Y-83698102D01*
X125465000Y-83898061D01*
X125465000Y-84101939D01*
X125504774Y-84301898D01*
X125582795Y-84490256D01*
X125696063Y-84659774D01*
X125840226Y-84803937D01*
X126009744Y-84917205D01*
X126198102Y-84995226D01*
X126398061Y-85035000D01*
X126601939Y-85035000D01*
X126801898Y-84995226D01*
X126990256Y-84917205D01*
X127159774Y-84803937D01*
X127303937Y-84659774D01*
X127417205Y-84490256D01*
X127495226Y-84301898D01*
X127535000Y-84101939D01*
X127535000Y-83898061D01*
X127495226Y-83698102D01*
X127475374Y-83650175D01*
X128261201Y-84436003D01*
X128284999Y-84465001D01*
X128313997Y-84488799D01*
X128400724Y-84559974D01*
X128532753Y-84630546D01*
X128676014Y-84674003D01*
X128825000Y-84688677D01*
X128862333Y-84685000D01*
X129415001Y-84685000D01*
X129415000Y-89456761D01*
X129396582Y-89446916D01*
X129248745Y-89402071D01*
X129095000Y-89386928D01*
X128795000Y-89386928D01*
X128641255Y-89402071D01*
X128493418Y-89446916D01*
X128357171Y-89519742D01*
X128310000Y-89558454D01*
X128262829Y-89519742D01*
X128126582Y-89446916D01*
X127978745Y-89402071D01*
X127825000Y-89386928D01*
X127525000Y-89386928D01*
X127371255Y-89402071D01*
X127223418Y-89446916D01*
X127087171Y-89519742D01*
X127040000Y-89558454D01*
X126992829Y-89519742D01*
X126856582Y-89446916D01*
X126708745Y-89402071D01*
X126555000Y-89386928D01*
X126255000Y-89386928D01*
X126101255Y-89402071D01*
X125953418Y-89446916D01*
X125819064Y-89518730D01*
X125789494Y-89494463D01*
X125679180Y-89435498D01*
X125559482Y-89399188D01*
X125435000Y-89386928D01*
X125420750Y-89390000D01*
X125262000Y-89548750D01*
X125262000Y-90923000D01*
X125282000Y-90923000D01*
X125282000Y-91177000D01*
X125262000Y-91177000D01*
X125262000Y-92551250D01*
X125370000Y-92659250D01*
X125370000Y-92756939D01*
X125409774Y-92956898D01*
X125423485Y-92990000D01*
X124587322Y-92990000D01*
X124549999Y-92986324D01*
X124512676Y-92990000D01*
X124512667Y-92990000D01*
X124401014Y-93000997D01*
X124257753Y-93044454D01*
X124125724Y-93115026D01*
X124125722Y-93115027D01*
X124125723Y-93115027D01*
X124038996Y-93186201D01*
X124038992Y-93186205D01*
X124009999Y-93209999D01*
X123986205Y-93238993D01*
X123488997Y-93736202D01*
X123460000Y-93759999D01*
X123446582Y-93776349D01*
X123414064Y-93793730D01*
X123384494Y-93769463D01*
X123274180Y-93710498D01*
X123154482Y-93674188D01*
X123030000Y-93661928D01*
X123015750Y-93665000D01*
X122857000Y-93823750D01*
X122857000Y-95148000D01*
X122877000Y-95148000D01*
X122877000Y-95402000D01*
X122857000Y-95402000D01*
X122857000Y-95422000D01*
X122603000Y-95422000D01*
X122603000Y-95402000D01*
X122583000Y-95402000D01*
X122583000Y-95148000D01*
X122603000Y-95148000D01*
X122603000Y-93823750D01*
X122444250Y-93665000D01*
X122430000Y-93661928D01*
X122305518Y-93674188D01*
X122185820Y-93710498D01*
X122075506Y-93769463D01*
X122045936Y-93793730D01*
X121911582Y-93721916D01*
X121763745Y-93677071D01*
X121610000Y-93661928D01*
X121310000Y-93661928D01*
X121156255Y-93677071D01*
X121008418Y-93721916D01*
X120991018Y-93731216D01*
X120877500Y-93617698D01*
X120877500Y-93555561D01*
X120837726Y-93355602D01*
X120759705Y-93167244D01*
X120646437Y-92997726D01*
X120502274Y-92853563D01*
X120332756Y-92740295D01*
X120182002Y-92677850D01*
X120182002Y-92551252D01*
X120340750Y-92710000D01*
X120355000Y-92713072D01*
X120479482Y-92700812D01*
X120599180Y-92664502D01*
X120690000Y-92615957D01*
X120780820Y-92664502D01*
X120900518Y-92700812D01*
X121025000Y-92713072D01*
X121039250Y-92710000D01*
X121198000Y-92551250D01*
X121198000Y-91177000D01*
X121452000Y-91177000D01*
X121452000Y-92551250D01*
X121610750Y-92710000D01*
X121625000Y-92713072D01*
X121749482Y-92700812D01*
X121869180Y-92664502D01*
X121960000Y-92615957D01*
X122050820Y-92664502D01*
X122170518Y-92700812D01*
X122295000Y-92713072D01*
X122309250Y-92710000D01*
X122468000Y-92551250D01*
X122468000Y-91177000D01*
X122722000Y-91177000D01*
X122722000Y-92551250D01*
X122880750Y-92710000D01*
X122895000Y-92713072D01*
X123019482Y-92700812D01*
X123139180Y-92664502D01*
X123230000Y-92615957D01*
X123320820Y-92664502D01*
X123440518Y-92700812D01*
X123565000Y-92713072D01*
X123579250Y-92710000D01*
X123738000Y-92551250D01*
X123738000Y-91177000D01*
X123992000Y-91177000D01*
X123992000Y-92551250D01*
X124150750Y-92710000D01*
X124165000Y-92713072D01*
X124289482Y-92700812D01*
X124409180Y-92664502D01*
X124500000Y-92615957D01*
X124590820Y-92664502D01*
X124710518Y-92700812D01*
X124835000Y-92713072D01*
X124849250Y-92710000D01*
X125008000Y-92551250D01*
X125008000Y-91177000D01*
X123992000Y-91177000D01*
X123738000Y-91177000D01*
X122722000Y-91177000D01*
X122468000Y-91177000D01*
X121452000Y-91177000D01*
X121198000Y-91177000D01*
X120182000Y-91177000D01*
X120182000Y-91197000D01*
X119928000Y-91197000D01*
X119928000Y-91177000D01*
X119278750Y-91177000D01*
X119120000Y-91335750D01*
X119117830Y-91858028D01*
X117998804Y-90739003D01*
X117975001Y-90709999D01*
X117859276Y-90615026D01*
X117727247Y-90544454D01*
X117583986Y-90500997D01*
X117472333Y-90490000D01*
X117472322Y-90490000D01*
X117435000Y-90486324D01*
X117397678Y-90490000D01*
X116849077Y-90490000D01*
X116860472Y-90374300D01*
X116858030Y-90025000D01*
X119116928Y-90025000D01*
X119120000Y-90764250D01*
X119278750Y-90923000D01*
X119928000Y-90923000D01*
X119928000Y-89548750D01*
X120182000Y-89548750D01*
X120182000Y-90923000D01*
X121198000Y-90923000D01*
X121198000Y-89548750D01*
X121452000Y-89548750D01*
X121452000Y-90923000D01*
X122468000Y-90923000D01*
X122468000Y-89548750D01*
X122722000Y-89548750D01*
X122722000Y-90923000D01*
X123738000Y-90923000D01*
X123738000Y-89548750D01*
X123992000Y-89548750D01*
X123992000Y-90923000D01*
X125008000Y-90923000D01*
X125008000Y-89548750D01*
X124849250Y-89390000D01*
X124835000Y-89386928D01*
X124710518Y-89399188D01*
X124590820Y-89435498D01*
X124500000Y-89484043D01*
X124409180Y-89435498D01*
X124289482Y-89399188D01*
X124165000Y-89386928D01*
X124150750Y-89390000D01*
X123992000Y-89548750D01*
X123738000Y-89548750D01*
X123579250Y-89390000D01*
X123565000Y-89386928D01*
X123440518Y-89399188D01*
X123320820Y-89435498D01*
X123230000Y-89484043D01*
X123139180Y-89435498D01*
X123019482Y-89399188D01*
X122895000Y-89386928D01*
X122880750Y-89390000D01*
X122722000Y-89548750D01*
X122468000Y-89548750D01*
X122309250Y-89390000D01*
X122295000Y-89386928D01*
X122170518Y-89399188D01*
X122050820Y-89435498D01*
X121960000Y-89484043D01*
X121869180Y-89435498D01*
X121749482Y-89399188D01*
X121625000Y-89386928D01*
X121610750Y-89390000D01*
X121452000Y-89548750D01*
X121198000Y-89548750D01*
X121039250Y-89390000D01*
X121025000Y-89386928D01*
X120900518Y-89399188D01*
X120780820Y-89435498D01*
X120690000Y-89484043D01*
X120599180Y-89435498D01*
X120479482Y-89399188D01*
X120355000Y-89386928D01*
X120340750Y-89390000D01*
X120182000Y-89548750D01*
X119928000Y-89548750D01*
X119769250Y-89390000D01*
X119755000Y-89386928D01*
X119630518Y-89399188D01*
X119510820Y-89435498D01*
X119400506Y-89494463D01*
X119303815Y-89573815D01*
X119224463Y-89670506D01*
X119165498Y-89780820D01*
X119129188Y-89900518D01*
X119116928Y-90025000D01*
X116858030Y-90025000D01*
X116857400Y-89935050D01*
X116698650Y-89776300D01*
X115849400Y-89776300D01*
X115849400Y-89796300D01*
X115595400Y-89796300D01*
X115595400Y-89776300D01*
X115575400Y-89776300D01*
X115575400Y-89522300D01*
X115595400Y-89522300D01*
X115595400Y-88448050D01*
X115849400Y-88448050D01*
X115849400Y-89522300D01*
X116698650Y-89522300D01*
X116857400Y-89363550D01*
X116860472Y-88924300D01*
X116848212Y-88799818D01*
X116811902Y-88680120D01*
X116752937Y-88569806D01*
X116673585Y-88473115D01*
X116576894Y-88393763D01*
X116466580Y-88334798D01*
X116346882Y-88298488D01*
X116222400Y-88286228D01*
X116008150Y-88289300D01*
X115849400Y-88448050D01*
X115595400Y-88448050D01*
X115436650Y-88289300D01*
X115222400Y-88286228D01*
X115097918Y-88298488D01*
X114978220Y-88334798D01*
X114867906Y-88393763D01*
X114771215Y-88473115D01*
X114705742Y-88552894D01*
X114700362Y-88546338D01*
X114582400Y-88449530D01*
X114582400Y-87724870D01*
X114700362Y-87628062D01*
X114705742Y-87621506D01*
X114771215Y-87701285D01*
X114867906Y-87780637D01*
X114978220Y-87839602D01*
X115097918Y-87875912D01*
X115222400Y-87888172D01*
X115436650Y-87885100D01*
X115595400Y-87726350D01*
X115595400Y-86652100D01*
X115849400Y-86652100D01*
X115849400Y-87726350D01*
X116008150Y-87885100D01*
X116222400Y-87888172D01*
X116346882Y-87875912D01*
X116466580Y-87839602D01*
X116576894Y-87780637D01*
X116673585Y-87701285D01*
X116752937Y-87604594D01*
X116811902Y-87494280D01*
X116848212Y-87374582D01*
X116860472Y-87250100D01*
X116857400Y-86810850D01*
X116698650Y-86652100D01*
X115849400Y-86652100D01*
X115595400Y-86652100D01*
X115575400Y-86652100D01*
X115575400Y-86398100D01*
X115595400Y-86398100D01*
X115595400Y-85323850D01*
X115849400Y-85323850D01*
X115849400Y-86398100D01*
X116698650Y-86398100D01*
X116857400Y-86239350D01*
X116860472Y-85800100D01*
X116848212Y-85675618D01*
X116811902Y-85555920D01*
X116752937Y-85445606D01*
X116673585Y-85348915D01*
X116576894Y-85269563D01*
X116466580Y-85210598D01*
X116346882Y-85174288D01*
X116222400Y-85162028D01*
X116008150Y-85165100D01*
X115849400Y-85323850D01*
X115595400Y-85323850D01*
X115436650Y-85165100D01*
X115222400Y-85162028D01*
X115097918Y-85174288D01*
X114978220Y-85210598D01*
X114867906Y-85269563D01*
X114771215Y-85348915D01*
X114705742Y-85428694D01*
X114700362Y-85422138D01*
X114619900Y-85356105D01*
X114619900Y-84624030D01*
X114750362Y-84516962D01*
X114772400Y-84490109D01*
X114794438Y-84516962D01*
X114929013Y-84627405D01*
X115082549Y-84709472D01*
X115249145Y-84760008D01*
X115422399Y-84777072D01*
X115947401Y-84777072D01*
X116120655Y-84760008D01*
X116287251Y-84709472D01*
X116440787Y-84627405D01*
X116575362Y-84516962D01*
X116685805Y-84382387D01*
X116767872Y-84228851D01*
X116818408Y-84062255D01*
X116835472Y-83889001D01*
X116835472Y-82988999D01*
X116818408Y-82815745D01*
X116806049Y-82775000D01*
X119116928Y-82775000D01*
X119129188Y-82899482D01*
X119165498Y-83019180D01*
X119224463Y-83129494D01*
X119303815Y-83226185D01*
X119400506Y-83305537D01*
X119510820Y-83364502D01*
X119630518Y-83400812D01*
X119755000Y-83413072D01*
X119769250Y-83410000D01*
X119928000Y-83251250D01*
X119928000Y-81877000D01*
X120182000Y-81877000D01*
X120182000Y-83251250D01*
X120340750Y-83410000D01*
X120355000Y-83413072D01*
X120479482Y-83400812D01*
X120599180Y-83364502D01*
X120690000Y-83315957D01*
X120780820Y-83364502D01*
X120900518Y-83400812D01*
X121025000Y-83413072D01*
X121039250Y-83410000D01*
X121198000Y-83251250D01*
X121198000Y-81877000D01*
X121452000Y-81877000D01*
X121452000Y-83251250D01*
X121610750Y-83410000D01*
X121625000Y-83413072D01*
X121749482Y-83400812D01*
X121869180Y-83364502D01*
X121960000Y-83315957D01*
X122050820Y-83364502D01*
X122170518Y-83400812D01*
X122295000Y-83413072D01*
X122309250Y-83410000D01*
X122468000Y-83251250D01*
X122468000Y-81877000D01*
X122722000Y-81877000D01*
X122722000Y-83251250D01*
X122880750Y-83410000D01*
X122895000Y-83413072D01*
X123019482Y-83400812D01*
X123139180Y-83364502D01*
X123230000Y-83315957D01*
X123320820Y-83364502D01*
X123440518Y-83400812D01*
X123565000Y-83413072D01*
X123579250Y-83410000D01*
X123738000Y-83251250D01*
X123738000Y-81877000D01*
X122722000Y-81877000D01*
X122468000Y-81877000D01*
X121452000Y-81877000D01*
X121198000Y-81877000D01*
X120182000Y-81877000D01*
X119928000Y-81877000D01*
X119278750Y-81877000D01*
X119120000Y-82035750D01*
X119116928Y-82775000D01*
X116806049Y-82775000D01*
X116767872Y-82649149D01*
X116685805Y-82495613D01*
X116575362Y-82361038D01*
X116514900Y-82311418D01*
X116514900Y-82216383D01*
X116660786Y-82138405D01*
X116795362Y-82027962D01*
X116905805Y-81893386D01*
X116987872Y-81739850D01*
X117038408Y-81573254D01*
X117055472Y-81400000D01*
X117055472Y-80725000D01*
X119116928Y-80725000D01*
X119120000Y-81464250D01*
X119278750Y-81623000D01*
X119928000Y-81623000D01*
X119928000Y-80248750D01*
X120182000Y-80248750D01*
X120182000Y-81623000D01*
X121198000Y-81623000D01*
X121198000Y-80248750D01*
X121452000Y-80248750D01*
X121452000Y-81623000D01*
X122468000Y-81623000D01*
X122468000Y-80248750D01*
X122722000Y-80248750D01*
X122722000Y-81623000D01*
X123738000Y-81623000D01*
X123738000Y-80248750D01*
X123579250Y-80090000D01*
X123565000Y-80086928D01*
X123440518Y-80099188D01*
X123320820Y-80135498D01*
X123230000Y-80184043D01*
X123139180Y-80135498D01*
X123019482Y-80099188D01*
X122895000Y-80086928D01*
X122880750Y-80090000D01*
X122722000Y-80248750D01*
X122468000Y-80248750D01*
X122309250Y-80090000D01*
X122295000Y-80086928D01*
X122170518Y-80099188D01*
X122050820Y-80135498D01*
X121960000Y-80184043D01*
X121869180Y-80135498D01*
X121749482Y-80099188D01*
X121625000Y-80086928D01*
X121610750Y-80090000D01*
X121452000Y-80248750D01*
X121198000Y-80248750D01*
X121039250Y-80090000D01*
X121025000Y-80086928D01*
X120900518Y-80099188D01*
X120780820Y-80135498D01*
X120690000Y-80184043D01*
X120599180Y-80135498D01*
X120479482Y-80099188D01*
X120355000Y-80086928D01*
X120340750Y-80090000D01*
X120182000Y-80248750D01*
X119928000Y-80248750D01*
X119769250Y-80090000D01*
X119755000Y-80086928D01*
X119630518Y-80099188D01*
X119510820Y-80135498D01*
X119400506Y-80194463D01*
X119303815Y-80273815D01*
X119224463Y-80370506D01*
X119165498Y-80480820D01*
X119129188Y-80600518D01*
X119116928Y-80725000D01*
X117055472Y-80725000D01*
X117055472Y-80600000D01*
X117038408Y-80426746D01*
X116987872Y-80260150D01*
X116905805Y-80106614D01*
X116795362Y-79972038D01*
X116660786Y-79861595D01*
X116507250Y-79779528D01*
X116340654Y-79728992D01*
X116167400Y-79711928D01*
X115342400Y-79711928D01*
X115169146Y-79728992D01*
X115002550Y-79779528D01*
X114878820Y-79845664D01*
X114846894Y-79819463D01*
X114736580Y-79760498D01*
X114616882Y-79724188D01*
X114492400Y-79711928D01*
X114115650Y-79715000D01*
X113956900Y-79873750D01*
X113956900Y-80873000D01*
X113976900Y-80873000D01*
X113976900Y-81127000D01*
X113956900Y-81127000D01*
X113956900Y-81147000D01*
X113702900Y-81147000D01*
X113702900Y-81127000D01*
X112691150Y-81127000D01*
X112532400Y-81285750D01*
X112529328Y-81650000D01*
X112541588Y-81774482D01*
X112577898Y-81894180D01*
X112636863Y-82004494D01*
X112716215Y-82101185D01*
X112812906Y-82180537D01*
X112923220Y-82239502D01*
X113042918Y-82275812D01*
X113070032Y-82278482D01*
X112969438Y-82361038D01*
X112858995Y-82495613D01*
X112776928Y-82649149D01*
X112726392Y-82815745D01*
X112709328Y-82988999D01*
X112709328Y-83889001D01*
X112726392Y-84062255D01*
X112776928Y-84228851D01*
X112858995Y-84382387D01*
X112969438Y-84516962D01*
X113099900Y-84624030D01*
X113099901Y-85300531D01*
X113079014Y-85311695D01*
X112944438Y-85422138D01*
X112833995Y-85556714D01*
X112751928Y-85710250D01*
X112701392Y-85876846D01*
X112684328Y-86050100D01*
X112684328Y-87000100D01*
X112701392Y-87173354D01*
X112751928Y-87339950D01*
X112833995Y-87493486D01*
X112944438Y-87628062D01*
X113062400Y-87724871D01*
X113062401Y-88449529D01*
X112944438Y-88546338D01*
X112833995Y-88680914D01*
X112751928Y-88834450D01*
X112701392Y-89001046D01*
X112684328Y-89174300D01*
X112684328Y-90124300D01*
X112701392Y-90297554D01*
X112751928Y-90464150D01*
X112833995Y-90617686D01*
X112944438Y-90752262D01*
X113079014Y-90862705D01*
X113162401Y-90907276D01*
X113162400Y-92386299D01*
X112540103Y-91764001D01*
X112516300Y-91734998D01*
X112400575Y-91640025D01*
X112268546Y-91569453D01*
X112125285Y-91525996D01*
X112013632Y-91514999D01*
X112013621Y-91514999D01*
X111976299Y-91511323D01*
X111938977Y-91514999D01*
X104842323Y-91514999D01*
X104805000Y-91511323D01*
X104767677Y-91514999D01*
X104767668Y-91514999D01*
X104656015Y-91525996D01*
X104512754Y-91569453D01*
X104380725Y-91640025D01*
X104380723Y-91640026D01*
X104380724Y-91640026D01*
X104293997Y-91711200D01*
X104293993Y-91711204D01*
X104265000Y-91734998D01*
X104241206Y-91763991D01*
X103485000Y-92520198D01*
X103485000Y-92393740D01*
X103427932Y-92106842D01*
X103315990Y-91836589D01*
X103153475Y-91593368D01*
X102946632Y-91386525D01*
X102772240Y-91270000D01*
X102946632Y-91153475D01*
X103153475Y-90946632D01*
X103315990Y-90703411D01*
X103427932Y-90433158D01*
X103485000Y-90146260D01*
X103485000Y-89853740D01*
X103427932Y-89566842D01*
X103315990Y-89296589D01*
X103153475Y-89053368D01*
X102946632Y-88846525D01*
X102772240Y-88730000D01*
X102946632Y-88613475D01*
X103153475Y-88406632D01*
X103315990Y-88163411D01*
X103427932Y-87893158D01*
X103485000Y-87606260D01*
X103485000Y-87313740D01*
X103427932Y-87026842D01*
X103315990Y-86756589D01*
X103153475Y-86513368D01*
X103021620Y-86381513D01*
X103094180Y-86359502D01*
X103204494Y-86300537D01*
X103301185Y-86221185D01*
X103380537Y-86124494D01*
X103439502Y-86014180D01*
X103475812Y-85894482D01*
X103488072Y-85770000D01*
X103488072Y-84070000D01*
X103475812Y-83945518D01*
X103439502Y-83825820D01*
X103380537Y-83715506D01*
X103301185Y-83618815D01*
X103204494Y-83539463D01*
X103094180Y-83480498D01*
X102974482Y-83444188D01*
X102850000Y-83431928D01*
X101150000Y-83431928D01*
X101025518Y-83444188D01*
X100905820Y-83480498D01*
X100795506Y-83539463D01*
X100698815Y-83618815D01*
X100660000Y-83666111D01*
X100660000Y-79160000D01*
X101715323Y-79160000D01*
X101580795Y-79215723D01*
%TA.AperFunction,Conductor*%
D21*
G36*
X101580795Y-79215723D02*
G01*
X101435845Y-79312576D01*
X101312576Y-79435845D01*
X101215723Y-79580795D01*
X101149010Y-79741855D01*
X101115000Y-79912835D01*
X101115000Y-80087165D01*
X101149010Y-80258145D01*
X101215723Y-80419205D01*
X101312576Y-80564155D01*
X101435845Y-80687424D01*
X101580795Y-80784277D01*
X101741855Y-80850990D01*
X101912835Y-80885000D01*
X102087165Y-80885000D01*
X102258145Y-80850990D01*
X102419205Y-80784277D01*
X102564155Y-80687424D01*
X102687424Y-80564155D01*
X102784277Y-80419205D01*
X102850990Y-80258145D01*
X102885000Y-80087165D01*
X102885000Y-79912835D01*
X102850990Y-79741855D01*
X102784277Y-79580795D01*
X102687424Y-79435845D01*
X102564155Y-79312576D01*
X102419205Y-79215723D01*
X102284677Y-79160000D01*
X105914217Y-79160000D01*
X105765021Y-79221799D01*
X105251554Y-79564886D01*
X104814886Y-80001554D01*
X104471799Y-80515021D01*
X104235476Y-81085554D01*
X104115000Y-81691229D01*
X104115000Y-82308771D01*
X104235476Y-82914446D01*
X104471799Y-83484979D01*
X104814886Y-83998446D01*
X105251554Y-84435114D01*
X105765021Y-84778201D01*
X106335554Y-85014524D01*
X106941229Y-85135000D01*
X107558771Y-85135000D01*
X108164446Y-85014524D01*
X108734979Y-84778201D01*
X109248446Y-84435114D01*
X109685114Y-83998446D01*
X110028201Y-83484979D01*
X110264524Y-82914446D01*
X110385000Y-82308771D01*
X110385000Y-81691229D01*
X110264524Y-81085554D01*
X110028201Y-80515021D01*
X109917938Y-80350000D01*
X112529328Y-80350000D01*
X112532400Y-80714250D01*
X112691150Y-80873000D01*
X113702900Y-80873000D01*
X113702900Y-79873750D01*
X113544150Y-79715000D01*
X113167400Y-79711928D01*
X113042918Y-79724188D01*
X112923220Y-79760498D01*
X112812906Y-79819463D01*
X112716215Y-79898815D01*
X112636863Y-79995506D01*
X112577898Y-80105820D01*
X112541588Y-80225518D01*
X112529328Y-80350000D01*
X109917938Y-80350000D01*
X109685114Y-80001554D01*
X109248446Y-79564886D01*
X108734979Y-79221799D01*
X108585783Y-79160000D01*
X128394198Y-79160000D01*
X128340226Y-79196063D01*
X128196063Y-79340226D01*
X128082795Y-79509744D01*
X128004774Y-79698102D01*
X127965000Y-79898061D01*
X127965000Y-80100717D01*
X127825000Y-80086928D01*
X127525000Y-80086928D01*
X127371255Y-80102071D01*
X127223418Y-80146916D01*
X127087171Y-80219742D01*
X127040000Y-80258454D01*
X126992829Y-80219742D01*
X126856582Y-80146916D01*
X126708745Y-80102071D01*
X126555000Y-80086928D01*
X126255000Y-80086928D01*
X126101255Y-80102071D01*
X125953418Y-80146916D01*
X125817171Y-80219742D01*
X125770000Y-80258454D01*
X125722829Y-80219742D01*
X125586582Y-80146916D01*
X125438745Y-80102071D01*
X125285000Y-80086928D01*
X124985000Y-80086928D01*
X124831255Y-80102071D01*
X124683418Y-80146916D01*
X124549064Y-80218730D01*
X124519494Y-80194463D01*
X124409180Y-80135498D01*
X124289482Y-80099188D01*
X124165000Y-80086928D01*
X124150750Y-80090000D01*
X123992000Y-80248750D01*
X123992000Y-81623000D01*
X124012000Y-81623000D01*
X124012000Y-81877000D01*
X123992000Y-81877000D01*
X123992000Y-83251250D01*
X124150750Y-83410000D01*
X124165000Y-83413072D01*
X124289482Y-83400812D01*
X124409180Y-83364502D01*
X124519494Y-83305537D01*
X124549064Y-83281270D01*
X124683418Y-83353084D01*
X124831255Y-83397929D01*
X124985000Y-83413072D01*
X125285000Y-83413072D01*
X125438745Y-83397929D01*
X125586582Y-83353084D01*
X125722829Y-83280258D01*
X125740000Y-83266166D01*
X125740000Y-83296289D01*
X125696063Y-83340226D01*
X125582795Y-83509744D01*
X125504774Y-83698102D01*
X125465000Y-83898061D01*
X125465000Y-84101939D01*
X125504774Y-84301898D01*
X125582795Y-84490256D01*
X125696063Y-84659774D01*
X125840226Y-84803937D01*
X126009744Y-84917205D01*
X126198102Y-84995226D01*
X126398061Y-85035000D01*
X126601939Y-85035000D01*
X126801898Y-84995226D01*
X126990256Y-84917205D01*
X127159774Y-84803937D01*
X127303937Y-84659774D01*
X127417205Y-84490256D01*
X127495226Y-84301898D01*
X127535000Y-84101939D01*
X127535000Y-83898061D01*
X127495226Y-83698102D01*
X127475374Y-83650175D01*
X128261201Y-84436003D01*
X128284999Y-84465001D01*
X128313997Y-84488799D01*
X128400724Y-84559974D01*
X128532753Y-84630546D01*
X128676014Y-84674003D01*
X128825000Y-84688677D01*
X128862333Y-84685000D01*
X129415001Y-84685000D01*
X129415000Y-89456761D01*
X129396582Y-89446916D01*
X129248745Y-89402071D01*
X129095000Y-89386928D01*
X128795000Y-89386928D01*
X128641255Y-89402071D01*
X128493418Y-89446916D01*
X128357171Y-89519742D01*
X128310000Y-89558454D01*
X128262829Y-89519742D01*
X128126582Y-89446916D01*
X127978745Y-89402071D01*
X127825000Y-89386928D01*
X127525000Y-89386928D01*
X127371255Y-89402071D01*
X127223418Y-89446916D01*
X127087171Y-89519742D01*
X127040000Y-89558454D01*
X126992829Y-89519742D01*
X126856582Y-89446916D01*
X126708745Y-89402071D01*
X126555000Y-89386928D01*
X126255000Y-89386928D01*
X126101255Y-89402071D01*
X125953418Y-89446916D01*
X125819064Y-89518730D01*
X125789494Y-89494463D01*
X125679180Y-89435498D01*
X125559482Y-89399188D01*
X125435000Y-89386928D01*
X125420750Y-89390000D01*
X125262000Y-89548750D01*
X125262000Y-90923000D01*
X125282000Y-90923000D01*
X125282000Y-91177000D01*
X125262000Y-91177000D01*
X125262000Y-92551250D01*
X125370000Y-92659250D01*
X125370000Y-92756939D01*
X125409774Y-92956898D01*
X125423485Y-92990000D01*
X124587322Y-92990000D01*
X124549999Y-92986324D01*
X124512676Y-92990000D01*
X124512667Y-92990000D01*
X124401014Y-93000997D01*
X124257753Y-93044454D01*
X124125724Y-93115026D01*
X124125722Y-93115027D01*
X124125723Y-93115027D01*
X124038996Y-93186201D01*
X124038992Y-93186205D01*
X124009999Y-93209999D01*
X123986205Y-93238993D01*
X123488997Y-93736202D01*
X123460000Y-93759999D01*
X123446582Y-93776349D01*
X123414064Y-93793730D01*
X123384494Y-93769463D01*
X123274180Y-93710498D01*
X123154482Y-93674188D01*
X123030000Y-93661928D01*
X123015750Y-93665000D01*
X122857000Y-93823750D01*
X122857000Y-95148000D01*
X122877000Y-95148000D01*
X122877000Y-95402000D01*
X122857000Y-95402000D01*
X122857000Y-95422000D01*
X122603000Y-95422000D01*
X122603000Y-95402000D01*
X122583000Y-95402000D01*
X122583000Y-95148000D01*
X122603000Y-95148000D01*
X122603000Y-93823750D01*
X122444250Y-93665000D01*
X122430000Y-93661928D01*
X122305518Y-93674188D01*
X122185820Y-93710498D01*
X122075506Y-93769463D01*
X122045936Y-93793730D01*
X121911582Y-93721916D01*
X121763745Y-93677071D01*
X121610000Y-93661928D01*
X121310000Y-93661928D01*
X121156255Y-93677071D01*
X121008418Y-93721916D01*
X120991018Y-93731216D01*
X120877500Y-93617698D01*
X120877500Y-93555561D01*
X120837726Y-93355602D01*
X120759705Y-93167244D01*
X120646437Y-92997726D01*
X120502274Y-92853563D01*
X120332756Y-92740295D01*
X120182002Y-92677850D01*
X120182002Y-92551252D01*
X120340750Y-92710000D01*
X120355000Y-92713072D01*
X120479482Y-92700812D01*
X120599180Y-92664502D01*
X120690000Y-92615957D01*
X120780820Y-92664502D01*
X120900518Y-92700812D01*
X121025000Y-92713072D01*
X121039250Y-92710000D01*
X121198000Y-92551250D01*
X121198000Y-91177000D01*
X121452000Y-91177000D01*
X121452000Y-92551250D01*
X121610750Y-92710000D01*
X121625000Y-92713072D01*
X121749482Y-92700812D01*
X121869180Y-92664502D01*
X121960000Y-92615957D01*
X122050820Y-92664502D01*
X122170518Y-92700812D01*
X122295000Y-92713072D01*
X122309250Y-92710000D01*
X122468000Y-92551250D01*
X122468000Y-91177000D01*
X122722000Y-91177000D01*
X122722000Y-92551250D01*
X122880750Y-92710000D01*
X122895000Y-92713072D01*
X123019482Y-92700812D01*
X123139180Y-92664502D01*
X123230000Y-92615957D01*
X123320820Y-92664502D01*
X123440518Y-92700812D01*
X123565000Y-92713072D01*
X123579250Y-92710000D01*
X123738000Y-92551250D01*
X123738000Y-91177000D01*
X123992000Y-91177000D01*
X123992000Y-92551250D01*
X124150750Y-92710000D01*
X124165000Y-92713072D01*
X124289482Y-92700812D01*
X124409180Y-92664502D01*
X124500000Y-92615957D01*
X124590820Y-92664502D01*
X124710518Y-92700812D01*
X124835000Y-92713072D01*
X124849250Y-92710000D01*
X125008000Y-92551250D01*
X125008000Y-91177000D01*
X123992000Y-91177000D01*
X123738000Y-91177000D01*
X122722000Y-91177000D01*
X122468000Y-91177000D01*
X121452000Y-91177000D01*
X121198000Y-91177000D01*
X120182000Y-91177000D01*
X120182000Y-91197000D01*
X119928000Y-91197000D01*
X119928000Y-91177000D01*
X119278750Y-91177000D01*
X119120000Y-91335750D01*
X119117830Y-91858028D01*
X117998804Y-90739003D01*
X117975001Y-90709999D01*
X117859276Y-90615026D01*
X117727247Y-90544454D01*
X117583986Y-90500997D01*
X117472333Y-90490000D01*
X117472322Y-90490000D01*
X117435000Y-90486324D01*
X117397678Y-90490000D01*
X116849077Y-90490000D01*
X116860472Y-90374300D01*
X116858030Y-90025000D01*
X119116928Y-90025000D01*
X119120000Y-90764250D01*
X119278750Y-90923000D01*
X119928000Y-90923000D01*
X119928000Y-89548750D01*
X120182000Y-89548750D01*
X120182000Y-90923000D01*
X121198000Y-90923000D01*
X121198000Y-89548750D01*
X121452000Y-89548750D01*
X121452000Y-90923000D01*
X122468000Y-90923000D01*
X122468000Y-89548750D01*
X122722000Y-89548750D01*
X122722000Y-90923000D01*
X123738000Y-90923000D01*
X123738000Y-89548750D01*
X123992000Y-89548750D01*
X123992000Y-90923000D01*
X125008000Y-90923000D01*
X125008000Y-89548750D01*
X124849250Y-89390000D01*
X124835000Y-89386928D01*
X124710518Y-89399188D01*
X124590820Y-89435498D01*
X124500000Y-89484043D01*
X124409180Y-89435498D01*
X124289482Y-89399188D01*
X124165000Y-89386928D01*
X124150750Y-89390000D01*
X123992000Y-89548750D01*
X123738000Y-89548750D01*
X123579250Y-89390000D01*
X123565000Y-89386928D01*
X123440518Y-89399188D01*
X123320820Y-89435498D01*
X123230000Y-89484043D01*
X123139180Y-89435498D01*
X123019482Y-89399188D01*
X122895000Y-89386928D01*
X122880750Y-89390000D01*
X122722000Y-89548750D01*
X122468000Y-89548750D01*
X122309250Y-89390000D01*
X122295000Y-89386928D01*
X122170518Y-89399188D01*
X122050820Y-89435498D01*
X121960000Y-89484043D01*
X121869180Y-89435498D01*
X121749482Y-89399188D01*
X121625000Y-89386928D01*
X121610750Y-89390000D01*
X121452000Y-89548750D01*
X121198000Y-89548750D01*
X121039250Y-89390000D01*
X121025000Y-89386928D01*
X120900518Y-89399188D01*
X120780820Y-89435498D01*
X120690000Y-89484043D01*
X120599180Y-89435498D01*
X120479482Y-89399188D01*
X120355000Y-89386928D01*
X120340750Y-89390000D01*
X120182000Y-89548750D01*
X119928000Y-89548750D01*
X119769250Y-89390000D01*
X119755000Y-89386928D01*
X119630518Y-89399188D01*
X119510820Y-89435498D01*
X119400506Y-89494463D01*
X119303815Y-89573815D01*
X119224463Y-89670506D01*
X119165498Y-89780820D01*
X119129188Y-89900518D01*
X119116928Y-90025000D01*
X116858030Y-90025000D01*
X116857400Y-89935050D01*
X116698650Y-89776300D01*
X115849400Y-89776300D01*
X115849400Y-89796300D01*
X115595400Y-89796300D01*
X115595400Y-89776300D01*
X115575400Y-89776300D01*
X115575400Y-89522300D01*
X115595400Y-89522300D01*
X115595400Y-88448050D01*
X115849400Y-88448050D01*
X115849400Y-89522300D01*
X116698650Y-89522300D01*
X116857400Y-89363550D01*
X116860472Y-88924300D01*
X116848212Y-88799818D01*
X116811902Y-88680120D01*
X116752937Y-88569806D01*
X116673585Y-88473115D01*
X116576894Y-88393763D01*
X116466580Y-88334798D01*
X116346882Y-88298488D01*
X116222400Y-88286228D01*
X116008150Y-88289300D01*
X115849400Y-88448050D01*
X115595400Y-88448050D01*
X115436650Y-88289300D01*
X115222400Y-88286228D01*
X115097918Y-88298488D01*
X114978220Y-88334798D01*
X114867906Y-88393763D01*
X114771215Y-88473115D01*
X114705742Y-88552894D01*
X114700362Y-88546338D01*
X114582400Y-88449530D01*
X114582400Y-87724870D01*
X114700362Y-87628062D01*
X114705742Y-87621506D01*
X114771215Y-87701285D01*
X114867906Y-87780637D01*
X114978220Y-87839602D01*
X115097918Y-87875912D01*
X115222400Y-87888172D01*
X115436650Y-87885100D01*
X115595400Y-87726350D01*
X115595400Y-86652100D01*
X115849400Y-86652100D01*
X115849400Y-87726350D01*
X116008150Y-87885100D01*
X116222400Y-87888172D01*
X116346882Y-87875912D01*
X116466580Y-87839602D01*
X116576894Y-87780637D01*
X116673585Y-87701285D01*
X116752937Y-87604594D01*
X116811902Y-87494280D01*
X116848212Y-87374582D01*
X116860472Y-87250100D01*
X116857400Y-86810850D01*
X116698650Y-86652100D01*
X115849400Y-86652100D01*
X115595400Y-86652100D01*
X115575400Y-86652100D01*
X115575400Y-86398100D01*
X115595400Y-86398100D01*
X115595400Y-85323850D01*
X115849400Y-85323850D01*
X115849400Y-86398100D01*
X116698650Y-86398100D01*
X116857400Y-86239350D01*
X116860472Y-85800100D01*
X116848212Y-85675618D01*
X116811902Y-85555920D01*
X116752937Y-85445606D01*
X116673585Y-85348915D01*
X116576894Y-85269563D01*
X116466580Y-85210598D01*
X116346882Y-85174288D01*
X116222400Y-85162028D01*
X116008150Y-85165100D01*
X115849400Y-85323850D01*
X115595400Y-85323850D01*
X115436650Y-85165100D01*
X115222400Y-85162028D01*
X115097918Y-85174288D01*
X114978220Y-85210598D01*
X114867906Y-85269563D01*
X114771215Y-85348915D01*
X114705742Y-85428694D01*
X114700362Y-85422138D01*
X114619900Y-85356105D01*
X114619900Y-84624030D01*
X114750362Y-84516962D01*
X114772400Y-84490109D01*
X114794438Y-84516962D01*
X114929013Y-84627405D01*
X115082549Y-84709472D01*
X115249145Y-84760008D01*
X115422399Y-84777072D01*
X115947401Y-84777072D01*
X116120655Y-84760008D01*
X116287251Y-84709472D01*
X116440787Y-84627405D01*
X116575362Y-84516962D01*
X116685805Y-84382387D01*
X116767872Y-84228851D01*
X116818408Y-84062255D01*
X116835472Y-83889001D01*
X116835472Y-82988999D01*
X116818408Y-82815745D01*
X116806049Y-82775000D01*
X119116928Y-82775000D01*
X119129188Y-82899482D01*
X119165498Y-83019180D01*
X119224463Y-83129494D01*
X119303815Y-83226185D01*
X119400506Y-83305537D01*
X119510820Y-83364502D01*
X119630518Y-83400812D01*
X119755000Y-83413072D01*
X119769250Y-83410000D01*
X119928000Y-83251250D01*
X119928000Y-81877000D01*
X120182000Y-81877000D01*
X120182000Y-83251250D01*
X120340750Y-83410000D01*
X120355000Y-83413072D01*
X120479482Y-83400812D01*
X120599180Y-83364502D01*
X120690000Y-83315957D01*
X120780820Y-83364502D01*
X120900518Y-83400812D01*
X121025000Y-83413072D01*
X121039250Y-83410000D01*
X121198000Y-83251250D01*
X121198000Y-81877000D01*
X121452000Y-81877000D01*
X121452000Y-83251250D01*
X121610750Y-83410000D01*
X121625000Y-83413072D01*
X121749482Y-83400812D01*
X121869180Y-83364502D01*
X121960000Y-83315957D01*
X122050820Y-83364502D01*
X122170518Y-83400812D01*
X122295000Y-83413072D01*
X122309250Y-83410000D01*
X122468000Y-83251250D01*
X122468000Y-81877000D01*
X122722000Y-81877000D01*
X122722000Y-83251250D01*
X122880750Y-83410000D01*
X122895000Y-83413072D01*
X123019482Y-83400812D01*
X123139180Y-83364502D01*
X123230000Y-83315957D01*
X123320820Y-83364502D01*
X123440518Y-83400812D01*
X123565000Y-83413072D01*
X123579250Y-83410000D01*
X123738000Y-83251250D01*
X123738000Y-81877000D01*
X122722000Y-81877000D01*
X122468000Y-81877000D01*
X121452000Y-81877000D01*
X121198000Y-81877000D01*
X120182000Y-81877000D01*
X119928000Y-81877000D01*
X119278750Y-81877000D01*
X119120000Y-82035750D01*
X119116928Y-82775000D01*
X116806049Y-82775000D01*
X116767872Y-82649149D01*
X116685805Y-82495613D01*
X116575362Y-82361038D01*
X116514900Y-82311418D01*
X116514900Y-82216383D01*
X116660786Y-82138405D01*
X116795362Y-82027962D01*
X116905805Y-81893386D01*
X116987872Y-81739850D01*
X117038408Y-81573254D01*
X117055472Y-81400000D01*
X117055472Y-80725000D01*
X119116928Y-80725000D01*
X119120000Y-81464250D01*
X119278750Y-81623000D01*
X119928000Y-81623000D01*
X119928000Y-80248750D01*
X120182000Y-80248750D01*
X120182000Y-81623000D01*
X121198000Y-81623000D01*
X121198000Y-80248750D01*
X121452000Y-80248750D01*
X121452000Y-81623000D01*
X122468000Y-81623000D01*
X122468000Y-80248750D01*
X122722000Y-80248750D01*
X122722000Y-81623000D01*
X123738000Y-81623000D01*
X123738000Y-80248750D01*
X123579250Y-80090000D01*
X123565000Y-80086928D01*
X123440518Y-80099188D01*
X123320820Y-80135498D01*
X123230000Y-80184043D01*
X123139180Y-80135498D01*
X123019482Y-80099188D01*
X122895000Y-80086928D01*
X122880750Y-80090000D01*
X122722000Y-80248750D01*
X122468000Y-80248750D01*
X122309250Y-80090000D01*
X122295000Y-80086928D01*
X122170518Y-80099188D01*
X122050820Y-80135498D01*
X121960000Y-80184043D01*
X121869180Y-80135498D01*
X121749482Y-80099188D01*
X121625000Y-80086928D01*
X121610750Y-80090000D01*
X121452000Y-80248750D01*
X121198000Y-80248750D01*
X121039250Y-80090000D01*
X121025000Y-80086928D01*
X120900518Y-80099188D01*
X120780820Y-80135498D01*
X120690000Y-80184043D01*
X120599180Y-80135498D01*
X120479482Y-80099188D01*
X120355000Y-80086928D01*
X120340750Y-80090000D01*
X120182000Y-80248750D01*
X119928000Y-80248750D01*
X119769250Y-80090000D01*
X119755000Y-80086928D01*
X119630518Y-80099188D01*
X119510820Y-80135498D01*
X119400506Y-80194463D01*
X119303815Y-80273815D01*
X119224463Y-80370506D01*
X119165498Y-80480820D01*
X119129188Y-80600518D01*
X119116928Y-80725000D01*
X117055472Y-80725000D01*
X117055472Y-80600000D01*
X117038408Y-80426746D01*
X116987872Y-80260150D01*
X116905805Y-80106614D01*
X116795362Y-79972038D01*
X116660786Y-79861595D01*
X116507250Y-79779528D01*
X116340654Y-79728992D01*
X116167400Y-79711928D01*
X115342400Y-79711928D01*
X115169146Y-79728992D01*
X115002550Y-79779528D01*
X114878820Y-79845664D01*
X114846894Y-79819463D01*
X114736580Y-79760498D01*
X114616882Y-79724188D01*
X114492400Y-79711928D01*
X114115650Y-79715000D01*
X113956900Y-79873750D01*
X113956900Y-80873000D01*
X113976900Y-80873000D01*
X113976900Y-81127000D01*
X113956900Y-81127000D01*
X113956900Y-81147000D01*
X113702900Y-81147000D01*
X113702900Y-81127000D01*
X112691150Y-81127000D01*
X112532400Y-81285750D01*
X112529328Y-81650000D01*
X112541588Y-81774482D01*
X112577898Y-81894180D01*
X112636863Y-82004494D01*
X112716215Y-82101185D01*
X112812906Y-82180537D01*
X112923220Y-82239502D01*
X113042918Y-82275812D01*
X113070032Y-82278482D01*
X112969438Y-82361038D01*
X112858995Y-82495613D01*
X112776928Y-82649149D01*
X112726392Y-82815745D01*
X112709328Y-82988999D01*
X112709328Y-83889001D01*
X112726392Y-84062255D01*
X112776928Y-84228851D01*
X112858995Y-84382387D01*
X112969438Y-84516962D01*
X113099900Y-84624030D01*
X113099901Y-85300531D01*
X113079014Y-85311695D01*
X112944438Y-85422138D01*
X112833995Y-85556714D01*
X112751928Y-85710250D01*
X112701392Y-85876846D01*
X112684328Y-86050100D01*
X112684328Y-87000100D01*
X112701392Y-87173354D01*
X112751928Y-87339950D01*
X112833995Y-87493486D01*
X112944438Y-87628062D01*
X113062400Y-87724871D01*
X113062401Y-88449529D01*
X112944438Y-88546338D01*
X112833995Y-88680914D01*
X112751928Y-88834450D01*
X112701392Y-89001046D01*
X112684328Y-89174300D01*
X112684328Y-90124300D01*
X112701392Y-90297554D01*
X112751928Y-90464150D01*
X112833995Y-90617686D01*
X112944438Y-90752262D01*
X113079014Y-90862705D01*
X113162401Y-90907276D01*
X113162400Y-92386299D01*
X112540103Y-91764001D01*
X112516300Y-91734998D01*
X112400575Y-91640025D01*
X112268546Y-91569453D01*
X112125285Y-91525996D01*
X112013632Y-91514999D01*
X112013621Y-91514999D01*
X111976299Y-91511323D01*
X111938977Y-91514999D01*
X104842323Y-91514999D01*
X104805000Y-91511323D01*
X104767677Y-91514999D01*
X104767668Y-91514999D01*
X104656015Y-91525996D01*
X104512754Y-91569453D01*
X104380725Y-91640025D01*
X104380723Y-91640026D01*
X104380724Y-91640026D01*
X104293997Y-91711200D01*
X104293993Y-91711204D01*
X104265000Y-91734998D01*
X104241206Y-91763991D01*
X103485000Y-92520198D01*
X103485000Y-92393740D01*
X103427932Y-92106842D01*
X103315990Y-91836589D01*
X103153475Y-91593368D01*
X102946632Y-91386525D01*
X102772240Y-91270000D01*
X102946632Y-91153475D01*
X103153475Y-90946632D01*
X103315990Y-90703411D01*
X103427932Y-90433158D01*
X103485000Y-90146260D01*
X103485000Y-89853740D01*
X103427932Y-89566842D01*
X103315990Y-89296589D01*
X103153475Y-89053368D01*
X102946632Y-88846525D01*
X102772240Y-88730000D01*
X102946632Y-88613475D01*
X103153475Y-88406632D01*
X103315990Y-88163411D01*
X103427932Y-87893158D01*
X103485000Y-87606260D01*
X103485000Y-87313740D01*
X103427932Y-87026842D01*
X103315990Y-86756589D01*
X103153475Y-86513368D01*
X103021620Y-86381513D01*
X103094180Y-86359502D01*
X103204494Y-86300537D01*
X103301185Y-86221185D01*
X103380537Y-86124494D01*
X103439502Y-86014180D01*
X103475812Y-85894482D01*
X103488072Y-85770000D01*
X103488072Y-84070000D01*
X103475812Y-83945518D01*
X103439502Y-83825820D01*
X103380537Y-83715506D01*
X103301185Y-83618815D01*
X103204494Y-83539463D01*
X103094180Y-83480498D01*
X102974482Y-83444188D01*
X102850000Y-83431928D01*
X101150000Y-83431928D01*
X101025518Y-83444188D01*
X100905820Y-83480498D01*
X100795506Y-83539463D01*
X100698815Y-83618815D01*
X100660000Y-83666111D01*
X100660000Y-79160000D01*
X101715323Y-79160000D01*
X101580795Y-79215723D01*
G37*
%TD.AperFunction*%
%TD*%
M02*
